<?xml version="1.0" encoding="UTF-8" standalone="no"?>
<!-- Created with Inkscape (http://www.inkscape.org/) -->

<svg
   xmlns:dc="http://purl.org/dc/elements/1.1/"
   xmlns:cc="http://creativecommons.org/ns#"
   xmlns:rdf="http://www.w3.org/1999/02/22-rdf-syntax-ns#"
   xmlns:svg="http://www.w3.org/2000/svg"
   xmlns="http://www.w3.org/2000/svg"
   xmlns:sodipodi="http://sodipodi.sourceforge.net/DTD/sodipodi-0.dtd"
   xmlns:inkscape="http://www.inkscape.org/namespaces/inkscape"
   width="210mm"
   height="297mm"
   viewBox="0 0 210 297"
   version="1.1"
   id="svg8"
   inkscape:version="0.92.1 r15371"
   sodipodi:docname="Creed.svg">
  <defs
     id="defs2" />
  <sodipodi:namedview
     id="base"
     pagecolor="#ffffff"
     bordercolor="#666666"
     borderopacity="1.0"
     inkscape:pageopacity="0.0"
     inkscape:pageshadow="2"
     inkscape:zoom="0.45254834"
     inkscape:cx="325.6714"
     inkscape:cy="343.31604"
     inkscape:document-units="mm"
     inkscape:current-layer="layer1"
     showgrid="false"
     inkscape:window-width="1920"
     inkscape:window-height="971"
     inkscape:window-x="0"
     inkscape:window-y="31"
     inkscape:window-maximized="1" />
  <metadata
     id="metadata5">
    <rdf:RDF>
      <cc:Work
         rdf:about="">
        <dc:format>image/svg+xml</dc:format>
        <dc:type
           rdf:resource="http://purl.org/dc/dcmitype/StillImage" />
        <dc:title></dc:title>
      </cc:Work>
    </rdf:RDF>
  </metadata>
  <g
     inkscape:label="Layer 1"
     inkscape:groupmode="layer"
     id="layer1"
     style="display:inline">
    <path
       style="fill:#000000;stroke-width:0.61640781"
       d="m 57.173376,214.32248 c -10.40094,0.48199 -19.60327,-5.79772 -28.03954,-11.12352 -4.66163,-3.67538 -10.75173,-6.85998 -13.31939,-12.30237 4.12617,4.09249 9.22947,9.00962 15.14376,11.39952 14.2963,6.42585 30.32508,5.00523 45.57795,5.47507 9.581381,2.96416 18.723211,-3.18652 26.422134,-8.18912 3.27051,-1.87835 10.09683,-8.22198 11.16173,-7.13238 -14.253303,15.40657 -35.768443,25.19298 -56.946644,21.8728 z m -6.65049,-14.37594 C 37.376826,193.23 22.110106,187.51556 14.145083,174.24568 c -3.28838,-6.00301 -4.405551,-13.72341 -1.671521,-20.102 5.693001,-6.61408 17.071404,-3.00333 22.291774,-10.52604 3.08075,-7.72283 5.29532,-15.94494 8.39535,-23.76988 7.4737,-20.90077 14.97155,-41.793368 22.65912,-62.616628 11.916351,28.604308 19.240161,59.017138 33.147211,86.808168 9.835233,-0.18929 19.863803,6.82552 20.824113,17.03889 1.45119,10.46333 -5.17788,21.03548 -14.77088,25.1131 -6.321133,5.22651 -13.828803,9.05147 -21.446943,12.02003 2.64074,-3.22279 10.22602,-7.42418 11.2485,-13.78176 4.23082,-13.30433 -2.79269,-26.55166 -7.75475,-38.59631 -4.31745,-10.06903 -7.17022,-20.669 -11.267701,-30.83239 -3.87872,-10.51214 -7.78064,-21.01569 -11.65621,-31.52898 -11.27019,27.77964 -18.90624,56.83571 -28.79095,85.10182 -3.12409,12.27786 4.49936,25.46721 15.17069,31.37284 z"
       id="path33"
       inkscape:connector-curvature="0" />
    <path
       style="fill:#000000;fill-opacity:1;stroke:#000000;stroke-width:0.26458332px;stroke-linecap:butt;stroke-linejoin:miter;stroke-opacity:1"
       d="m 61.796237,208.82008 14.77856,0.98694 6.99851,-11.5957 c -0.51313,-0.29645 -13.34694,2.20622 -16.9601,2.52978 z"
       id="path35"
       inkscape:connector-curvature="0"
       sodipodi:nodetypes="ccccc" />
    <path
       style="fill:#000000;fill-opacity:1;stroke:#000000;stroke-width:0.30855292px;stroke-linecap:butt;stroke-linejoin:miter;stroke-opacity:1"
       d="m 61.796237,208.82008 c 1.60566,-2.74456 3.21131,-5.48913 4.81697,-8.23369 -3.63607,0.12364 -15.2303,-2.59667 -18.86637,-2.47303 z"
       id="path37"
       inkscape:connector-curvature="0"
       sodipodi:nodetypes="cccc" />
  </g>
</svg>
