<?xml version="1.0" encoding="UTF-8" standalone="no"?>
<!-- Created with Inkscape (http://www.inkscape.org/) -->

<svg
   xmlns:dc="http://purl.org/dc/elements/1.1/"
   xmlns:cc="http://creativecommons.org/ns#"
   xmlns:rdf="http://www.w3.org/1999/02/22-rdf-syntax-ns#"
   xmlns:svg="http://www.w3.org/2000/svg"
   xmlns="http://www.w3.org/2000/svg"
   xmlns:sodipodi="http://sodipodi.sourceforge.net/DTD/sodipodi-0.dtd"
   xmlns:inkscape="http://www.inkscape.org/namespaces/inkscape"
   width="210mm"
   height="297mm"
   viewBox="0 0 210 297"
   version="1.1"
   id="svg177"
   inkscape:version="0.92.1 r15371"
   sodipodi:docname="drawing-1.svg">
  <defs
     id="defs171" />
  <sodipodi:namedview
     id="base"
     pagecolor="#ffffff"
     bordercolor="#666666"
     borderopacity="1.0"
     inkscape:pageopacity="0.0"
     inkscape:pageshadow="2"
     inkscape:zoom="1.4"
     inkscape:cx="194.28241"
     inkscape:cy="291.28572"
     inkscape:document-units="mm"
     inkscape:current-layer="layer1"
     showgrid="false"
     inkscape:window-width="1920"
     inkscape:window-height="971"
     inkscape:window-x="0"
     inkscape:window-y="31"
     inkscape:window-maximized="1" />
  <metadata
     id="metadata174">
    <rdf:RDF>
      <cc:Work
         rdf:about="">
        <dc:format>image/svg+xml</dc:format>
        <dc:type
           rdf:resource="http://purl.org/dc/dcmitype/StillImage" />
        <dc:title></dc:title>
      </cc:Work>
    </rdf:RDF>
  </metadata>
  <g
     inkscape:label="Layer 1"
     inkscape:groupmode="layer"
     id="layer1">
    <path
       style="fill:none;stroke:#000000;stroke-width:0.26458332px;stroke-linecap:butt;stroke-linejoin:miter;stroke-opacity:1"
       d="m 39.949622,201.65694 4.346726,-3.77977 4.724703,-2.26785 8.88244,-8.69346 12.473215,-6.99256 12.473215,-3.02381 10.583333,0.18899 9.260416,1.88988 1.70089,1.88988 0.37798,4.72471 -2.07887,3.21279 -3.212798,2.83483 -1.369332,0.85704 -0.534538,0.86863 -0.801809,0.33408 -1.135896,-0.33408 h -0.601356 l -5.87993,2.07134 -8.619443,4.87767 -2.204974,2.93996 0.534541,2.33861 0.601355,1.26953 0.601356,0.4009 1.336349,-0.60135 2.939963,-1.20271 2.138159,-0.46773 2.405425,0.80181 1.670433,1.1359 0.400905,0.53454 0.200451,-0.86863 v -1.13589 h 0.400904 l 0.334087,0.26726 0.668176,1.5368 0.46772,3.00679 0.06682,0.86862 0.668173,0.33409 0.267269,-0.46772 0.668176,-3.47451 -1.069078,-2.27179 0.06682,-0.4009 0.868627,-0.53454 0.734991,0.93544 0.534538,3.4745 0.334086,1.06908 1.603619,-0.4009 0.267269,-1.20271 -0.200451,-2.07134 -0.80181,-1.00226 0.06682,-0.66818 0.467723,-0.26727 1.069078,0.0668 c 0,0 0.200451,-0.13363 0.334087,0.53454 0.133633,0.66818 0.601355,1.80407 0.601355,1.80407 l -0.200451,1.33635 0.267269,1.06908 -0.267269,0.53453 1.336351,-0.66817 0.33408,-1.33635 -0.0668,-1.40316 -0.46772,-1.06908 v -0.80181 l 0.53454,-0.0668 h 0.60136 l 0.33408,0.93545 0.26728,2.80633 v 0.86862 l 0.53453,0.20046 0.60136,0.13363 1.20271,-1.06908 -0.26727,-2.13815 -0.53454,-0.735 0.33409,-0.60135 0.73499,-0.13364 0.20045,0.66818 0.20046,1.46998 0.13363,1.13589 0.60136,0.46773 0.33408,-0.20046 0.20046,-1.33634 v -1.00226 h 0.60135 l 0.66818,1.06907 v 0.33409 l 2.07133,-0.86863 3.8086,-2.67269 1.36975,-0.86863 0.63477,-0.16704 0.0668,0.53454 -0.50113,0.80181 -1.83748,2.73951 -1.5368,1.70384 -1.70385,1.5368 -3.07359,1.9043 -2.47225,1.10249 -0.53454,0.0668 -0.50033,1.1115 -0.28348,-0.0473 -0.42522,-0.23624 -0.56697,-0.37797 -0.23623,-0.0945 -0.33073,0.0472 -0.42523,0.56697 v 0.61421 l -0.66146,0.14174 -0.944934,-0.8977 -0.519718,0.47248 -0.04725,1.22842 -0.614212,0.0945 -0.661458,-0.61421 -0.566965,0.14174 0.283482,1.03944 -0.377975,0.47247 -1.086681,-0.42523 -0.330729,-0.0945 -0.33073,0.23623 0.188987,0.70871 0.283483,0.23624 0.188989,0.23623 -0.330729,0.23623 -0.803201,-0.14174 -0.519716,-0.14174 -0.330729,0.14174 0.09449,0.4961 0.283483,0.28348 0.07087,0.23624 -0.04725,0.33073 -0.803199,0.0472 -0.685083,0.0945 -0.118115,0.3071 v 0.23624 l 0.259858,0.33073 0.803198,1.06305 2.774977,2.67717 0.668173,1.87089 2.405425,-0.13364 5.345389,-2.40542 4.54359,-3.74178 3.20723,-5.21175 3.4745,-4.81085 5.87993,-2.80633 h 1.46999 l 1.60361,0.93544 1.20272,2.40543 -0.66818,1.60361 -2.00452,0.93545 -4.07586,1.9377 -0.66818,0.86863 -0.33408,0.66817 -0.60136,1.46998 -0.66817,2.27179 -0.73499,1.06908 -0.86863,0.60136 h -0.20045 l -0.40091,0.93544 -0.93544,1.5368 -0.93544,1.87089 -2.87315,3.0736 -4.47676,2.20497 -1.87089,0.33409 h -0.93544 l 0.86862,1.26953 1.06908,1.00226 0.66817,1.33635 0.73499,1.20271 0.46773,0.80181 3.40768,-0.0668 3.80859,-1.53681 3.20724,-1.9377 3.67496,-2.6727 3.80858,-2.00452 2.2718,-1.20271 2.87314,-1.00226 2.80633,-0.46772 1.5368,-0.20046 0.86863,0.13364 0.93544,0.93544 0.60136,2.13816 -0.20046,0.46772 -1.46998,0.60135 -4.07586,1.20272 -0.8018,0.66817 -0.80181,0.53454 -0.60136,0.26727 -1.20271,0.0668 -0.60136,-0.13364 -1.13589,1.06908 -4.14268,3.8754 -3.74178,2.80633 -5.74629,2.73953 -1.80407,-0.26729 1.06908,1.33636 1.00226,0.80182 0.53454,1.26952 0.53454,0.4009 0.13363,0.20045 1.33635,-1.00224 0.93544,-0.26728 1.40317,-1.73726 0.53454,-1.5368 0.0668,-0.20045 h 1.00226 l 0.86862,-0.20045 0.13364,0.53454 -0.40091,0.80182 -1.00226,2.4054 -2.07134,2.47224 -1.13589,0.73502 -0.46772,0.20044 0.13363,1.33634 -0.73499,0.33408 -1.06908,0.73502 -0.20045,-0.40093 -1.67043,1.06908 -0.53454,0.53454 -1.26953,0.26728 -0.73499,0.60134 -0.93545,0.60138 -1.26953,0.80179 -1.46998,0.13364 -1.00226,0.4009 -0.60136,-0.26726 -0.13363,-0.33409 -1.16931,0.56796 -2.20497,0.73498 -3.875409,0.90205 -2.438834,0.26725 -7.550364,1.00227 -2.405425,-0.0668 -0.400905,0.33409 -0.668173,0.26728 -1.804069,-0.33409 -3.741775,0.26728 -1.670433,1.26952 -0.734992,0.53454 h -1.202714 l -0.601355,0.13364 -0.400905,0.73499 -0.334087,0.4009 -0.801809,-0.13365 -0.935442,0.53454 -0.734991,0.80182 -1.069078,-0.33409 -1.971114,0.20045 -1.637025,0.53454 -1.603619,0.86863 -0.968851,1.33635 c 0,0 -0.902036,1.03566 -0.935442,1.20272 -0.03341,0.16703 -0.167045,0.80179 -0.167045,0.80179 l -0.467721,0.30068 h -3.407687 l -1.135895,0.10025 -1.03567,0.53453 -1.703843,-0.10025 -1.102487,-0.40089 -0.400904,-0.60135 -0.100226,-0.13364 0.367496,0.0668 0.634765,0.16706 h 0.634765 l 0.734991,-0.0668 0.300678,-0.36748 0.300678,-0.7684 0.567948,-0.73499 0.801809,-0.3675 h 1.035669 1.069078 0.26727 l -0.100226,-0.66818 0.100226,-0.96885 0.634765,-0.76841 0.902035,-0.66815 0.567947,-0.23386 0.03341,-0.43432 h -0.167043 l -0.167044,-0.13364 -0.03341,-0.53454 H 60.39313 l -0.634765,0.0334 -0.50113,0.30067 h -0.200453 l -0.200452,0.23387 -0.300678,0.50112 -0.50113,0.20045 -0.801809,0.0334 -0.701582,-0.10022 -0.233861,-0.13364 -0.701583,0.43431 -0.902034,0.96885 -0.167044,1.06908 -0.200452,0.10022 -0.167043,-0.80179 0.233861,-1.57022 0.601356,-1.13588 1.403165,-0.96886 1.102487,-0.56795 0.534539,-0.93544 -0.26727,-0.0668 -0.634765,0.13364 -1.336347,0.23387 c 0,0 -0.968852,0 -1.102487,0 -0.133635,0 -1.03567,0.13364 -1.03567,0.13364 l -0.200452,0.50112 -0.434313,0.70159 -1.102486,0.90202 -0.434313,0.36751 0.267269,0.26725 0.26727,0.33409 0.334086,0.56796 0.233861,0.70157 0.100226,0.83523 -0.133634,0.53454 -0.200453,0.60135 -0.868625,0.66818 -0.26727,0.30067 -0.06682,0.66818 -0.06682,1.13591 0.100226,0.96885 0.501131,0.76837 0.267269,0.56796 -0.50113,0.0668 -0.400904,-0.46773 -0.701583,-1.00227 -0.26727,-1.40316 0.03341,-0.66818 -0.167043,0.0334 -0.367496,0.13364 -0.233861,0.23386 0.100226,1.93771 -0.133634,1.03565 -0.467722,-0.30067 -0.7684,-1.63703 -0.26727,-2.43882 0.734992,-2.07135 0.06682,-0.53453 -0.668174,-0.76841 -1.26953,-1.33635 -0.601356,-0.93544 0.668173,-0.26728 2.238383,-2.40541 1.570208,-1.9377 0.7684,-1.0691 2.706104,-1.1693 0.167043,-0.10022 -0.567947,-0.70157 -0.734991,-0.7016 -0.53454,-0.0668 -1.202712,0.23387 -3.407687,0.66815 -1.637026,-0.20045 -0.567947,0.0334 -0.26727,0.36751 -0.902035,0.93543 -1.302939,0.43431 -1.236121,-0.10022 -0.668174,-0.4009 -0.400905,-0.0668 -1.937704,0.56795 -1.77066,0.53454 -1.302939,0.7684 -0.367496,0.26726 -0.233861,-0.16703 0.367496,-0.7684 0.935443,-0.80182 2.271791,-1.13589 1.403165,-0.53453 -0.06682,-0.16704 -0.601356,-0.0334 -1.5368,0.33409 -1.26953,0.30067 -0.835218,0.36751 0.668174,-0.93547 1.302939,-0.70156 0.835217,-0.53454 1.670435,-0.56796 1.971113,-0.56795 0.868626,-0.30067 0.133635,-0.76841 0.701582,0.0334 1.403165,-0.10022 1.770661,-0.16706 2.071338,-0.4009 3.006783,-0.73498 2.405425,-1.20272 h 0.634765 l 0.367496,0.66818 2.572469,1.97109 2.906556,2.13818 3.207234,1.53678 1.971114,0.86862 0.734991,0.36751 -0.06682,-0.63476 -0.03341,-0.33409 0.23386,-0.0668 0.634768,0.13362 0.935442,0.50114 1.369756,0.4009 0.567949,-0.20045 0.567947,-0.0334 h 0.7684 l 0.03341,0.36751 0.701582,0.0334 0.668174,-0.4009 0.200451,-0.53453 -0.23386,-2.30521 -0.601356,-2.27179 -0.935445,-1.40317 -0.601355,-0.10022 -0.100227,0.3675 v 0.33409 l -0.501129,0.0668 -0.334087,-0.43431 -0.868627,-0.76841 -0.467722,-0.83521 v -0.56795 h -0.300678 l -0.300678,0.10022 -0.06682,0.13364 -0.434313,-0.60134 0.233862,-1.67045 -0.400904,-0.4677 h -0.601356 l -0.06682,-0.46773 0.46772,-0.4009 -0.46772,-0.73501 -0.467722,-0.26726 h -0.534538 l -0.801809,-0.60137 0.46772,-0.8686 -0.334087,-0.73501 -0.334087,-0.20045 -0.601355,-0.60134 -0.366347,-0.0973 -0.259858,-0.37798 -0.04725,-0.59059 0.377976,-0.18899 0.307105,-0.25985 0.283483,-0.51972 -0.118118,-0.94494 -0.566964,-0.56697 -0.02362,-0.59058 0.519717,-0.42523 0.472471,-0.35435 -0.110867,-0.76284 -0.26727,-0.40091 -0.601356,-0.33409 -0.200452,-0.33408 0.200452,-0.53454 h 0.801808 l 0.200453,-0.13364 0.133634,-1.20271 -0.467721,-0.26727 -0.534539,-0.4009 0.200452,-0.73499 h 0.400904 l 0.534539,-0.20046 -0.06682,-0.86862 -0.400905,-0.13364 -0.734991,-0.4009 0.26727,-0.86863 1.069078,-0.20045 -0.467722,-0.4009 0.200452,-0.50113 0.334087,-0.10023 -0.06682,-0.70158 0.267269,-0.86863 0.868626,-1.30294 0.300679,-1.23612 0.968852,-1.03567 -2.037931,-1.87089 -0.902034,0.10023 -0.467722,0.4009 -1.336348,0.70159 -1.971112,0.66817 -1.971113,0.83522 -0.801809,0.50113 -0.7684,1.26953 -5.879929,10.62396 -0.467722,0.33409 -0.601356,0.0334 -0.400905,-0.20045 -0.400904,-0.30068 -2.3052,-2.3052 -0.434313,-0.0668 -0.734991,-0.30068 -0.467721,-0.63476 0.467721,-0.46772 v -0.23387 l -0.935443,-0.66817 -0.467722,-0.30068 -0.233861,-0.10022 -0.567948,0.90203 -1.135895,0.93544 -0.400904,0.23387 -0.434313,-0.13364 -0.400905,-0.0334 -0.7684,0.50113 -1.703843,-0.10022 -1.169304,-0.30068 -0.50113,-0.56795 v -0.13363 l 0.601356,-0.0334 1.236122,-0.0334 0.400904,-0.30068 0.701582,-0.63477 -0.03341,-0.76839 -0.100226,-0.735 -0.50113,-0.43431 -0.868626,-0.13363 -0.300678,0.13363 -0.501131,0.33409 -0.334087,0.20045 -0.167043,-0.23386 0.200452,-0.53454 0.100226,-0.3675 -0.100226,-0.23386 -0.334087,0.0334 -0.567947,0.20045 -0.801809,0.66818 -0.334087,0.26727 0.167043,-1.03567 0.53454,-0.86863 0.668173,-0.53454 1.637026,-0.36749 2.204974,-0.96885 1.336347,-0.66818 4.677217,-2.7061 -0.100226,-0.26727 -0.100226,-0.0668 -0.233861,-0.0334 -0.06682,-0.43431 -0.133634,-0.20045 -0.200452,-0.10023 -0.233861,0.13364 -0.400905,0.13363 0.167044,0.96885 -0.06682,0.33409 -0.434313,-0.33409 -0.434313,-0.4009 h -0.200442 l -0.233861,-0.0334 -0.167043,0.4009 -0.03341,0.83522 -0.26727,0.3675 -0.233861,-0.13364 -0.768399,-0.60135 -0.100227,-0.23387 h -0.167043 l -0.200452,0.10023 0.03341,0.63477 -0.06682,1.13589 -0.06682,0.23386 -0.567948,-0.20045 -0.50113,-0.0668 -0.267269,0.3675 -0.701583,-0.0334 -0.133635,-0.10023 -0.634765,0.0334 -0.267269,-0.13363 v -1.03579 l 0.133634,-0.56795 0.200452,-0.0334 -0.133634,-0.36749 -0.26727,-0.20046 -0.213068,-0.83546 h 0.236235 l -0.09449,-0.56697 -0.897693,-0.0945 0.04725,-0.8032 0.377976,-0.14174 -0.283482,-0.56697 -1.181176,-0.51971 -0.755952,-1.98438 0.661458,-4.77195 z"
       id="path190"
       inkscape:connector-curvature="0" />
    <path
       style="fill:none;stroke:#000000;stroke-width:0.26458332px;stroke-linecap:butt;stroke-linejoin:miter;stroke-opacity:1"
       d="m 43.044302,203.35783 c 0.52551,-0.24731 1.121522,-0.41863 1.700893,-0.37798 0.268459,0.0188 0.549181,0.11123 0.755952,0.28348 0.141114,0.11756 0.323775,0.29328 0.283482,0.47247 -0.04983,0.2216 -0.40196,0.22189 -0.566964,0.37798 -0.228818,0.21646 -0.352785,0.525 -0.566964,0.75595 -0.455353,0.49101 -1.061691,0.82719 -1.511905,1.32292 -0.50834,0.55973 -0.97585,1.17087 -1.322916,1.84263 -0.244614,0.47346 -0.332492,1.01297 -0.519718,1.51191 -0.161314,0.42989 -0.31244,0.86596 -0.519717,1.27567 -0.258497,0.51095 -0.342681,1.60556 -0.897693,1.46465 -0.29043,-0.0737 -0.03225,-0.59842 -0.04725,-0.89769 -0.03315,-0.66138 -0.144048,-1.32402 -0.09449,-1.98437 0.06611,-0.88087 0.173813,-1.78578 0.519717,-2.59859 0.443083,-1.04116 1.158808,-1.96626 1.937128,-2.78757 0.247031,-0.26068 0.525497,-0.50854 0.850445,-0.66146 z"
       id="path192"
       inkscape:connector-curvature="0"
       sodipodi:nodetypes="ssssssssssssssss" />
    <path
       style="fill:none;stroke:#000000;stroke-width:0.26458332px;stroke-linecap:butt;stroke-linejoin:miter;stroke-opacity:1"
       d="m 41.201668,215.26408 1.27567,-0.61421 2.834821,-1.03944 2.929316,-1.74814 2.078869,-1.74814 1.606398,-1.84263 1.417411,-2.22061 3.212798,-3.35454 2.173363,-1.88988 3.638021,-2.69308 3.543525,-2.12612 4.110493,-2.45684 1.700892,-0.8977 3.496281,-1.74814 2.126115,-0.89769 1.937128,-0.85045 2.740327,-0.99218 3.354538,-0.94494 4.535715,-1.03944 h 2.834823 l 1.842632,0.56697 1.700892,1.03943 1.039434,1.18118 0.141743,1.08668 v 0.94494 l -0.236236,0.33073 h -0.14174 v -0.37798 l -0.0945,-0.85045 v -0.61421 l -0.425222,-0.61421 -0.897694,-0.99219 -2.031622,-0.94494 -1.370163,-0.33073 -2.031622,0.14175 -1.039434,0.23623 -1.228423,0.14174 -3.449032,0.99219 -2.267857,0.75595 -1.795389,0.61421 -1.511903,0.70871 -5.858627,2.55134 -3.401785,1.93713 -3.260045,1.84263 -2.740327,1.7009 -2.693081,1.74814 -3.449033,2.74032 -1.748139,1.46466 -1.889881,2.59859 -2.220611,3.21279 -1.748139,1.6064 -3.543527,2.26786 -2.834822,0.94494 -1.370163,0.61421 z"
       id="path194"
       inkscape:connector-curvature="0" />
    <path
       style="fill:none;stroke:#000000;stroke-width:0.26458332px;stroke-linecap:butt;stroke-linejoin:miter;stroke-opacity:1"
       d="m 67.943484,197.87717 c 0.16373,-0.19728 0.499593,-0.14458 0.755952,-0.14174 0.305772,0.003 0.667962,-0.0128 0.897694,0.18899 0.250711,0.22025 0.261192,0.61855 0.330729,0.94494 0.03952,0.18548 0.175658,0.42741 0.04725,0.56696 -0.08531,0.0927 -0.256204,0.0323 -0.377976,0 -0.122718,-0.0326 -0.246218,-0.0942 -0.330729,-0.18898 -0.07983,-0.0895 -0.07291,-0.23251 -0.141743,-0.33073 -0.198229,-0.28286 -0.428211,-0.59967 -0.755951,-0.70871 -0.135322,-0.045 -0.31895,0.14241 -0.425223,0.0473 -0.0939,-0.084 -0.08048,-0.28106 -3e-6,-0.37803 z"
       id="path196"
       inkscape:connector-curvature="0"
       sodipodi:nodetypes="sssssssssss" />
    <path
       style="fill:none;stroke:#000000;stroke-width:0.26458332px;stroke-linecap:butt;stroke-linejoin:miter;stroke-opacity:1"
       d="m 70.636564,196.17628 c 0.03868,0.27231 0.524322,0.18242 0.755952,0.33073 0.159709,0.10226 0.320825,0.21966 0.425222,0.37798 0.08225,0.12473 0.11781,0.27774 0.141743,0.42522 0.02271,0.13991 0.02942,0.28657 0,0.42522 -0.0322,0.15173 -0.234379,0.2769 -0.188989,0.42522 0.04348,0.14207 0.23179,0.26279 0.377975,0.23624 0.331618,-0.0602 0.514144,-0.48135 0.614212,-0.8032 0.09363,-0.30115 0.112475,-0.67301 -0.04725,-0.94494 -0.150497,-0.25622 -0.484439,-0.35172 -0.755952,-0.47247 -0.209524,-0.0932 -0.436778,-0.14315 -0.661458,-0.18899 -0.124408,-0.0254 -0.256135,-0.0829 -0.377976,-0.0472 -0.118025,0.0346 -0.300778,0.11442 -0.283479,0.23619 z"
       id="path198"
       inkscape:connector-curvature="0"
       sodipodi:nodetypes="sssssssssssss" />
    <path
       style="fill:none;stroke:#000000;stroke-width:0.26458332px;stroke-linecap:butt;stroke-linejoin:miter;stroke-opacity:1"
       d="m 72.904422,194.56988 c -0.02001,0.23167 0.403552,0.23227 0.614209,0.33073 0.153666,0.0718 0.336244,0.0879 0.472472,0.18899 0.08099,0.0601 0.140795,0.14765 0.188986,0.23623 0.0714,0.13125 0.11781,0.27775 0.141743,0.42523 0.03027,0.18655 -0.04342,0.38303 0,0.56696 0.03236,0.1371 0.06916,0.30392 0.188986,0.37798 0.06699,0.0414 0.158912,0.0149 0.236236,0 0.08328,-0.016 0.185073,-0.0269 0.236236,-0.0945 0.181508,-0.23997 0.137954,-0.59996 0.09449,-0.89769 -0.02958,-0.20259 -0.114721,-0.40218 -0.236236,-0.56696 -0.14601,-0.19799 -0.346612,-0.36308 -0.566962,-0.47247 -0.188205,-0.0934 -0.406885,-0.10761 -0.614212,-0.14175 -0.156171,-0.0257 -0.315171,-0.0647 -0.472471,-0.0472 -0.09899,0.011 -0.274906,-0.005 -0.283477,0.0945 z"
       id="path200"
       inkscape:connector-curvature="0"
       sodipodi:nodetypes="sssssssssssssss" />
    <path
       style="fill:none;stroke:#000000;stroke-width:0.26458332px;stroke-linecap:butt;stroke-linejoin:miter;stroke-opacity:1"
       d="m 75.691995,193.24697 c 0.105798,0.15013 0.315512,0.1881 0.472469,0.28348 0.205442,0.12484 0.478028,0.17987 0.614212,0.37797 0.145237,0.21127 0.118017,0.50068 0.141742,0.75596 0.01749,0.18818 -0.116304,0.418 0,0.56696 0.07992,0.10236 0.252818,0.12917 0.377976,0.0945 0.128786,-0.0357 0.214553,-0.16899 0.283483,-0.28348 0.110491,-0.18351 0.169585,-0.40088 0.188986,-0.61421 0.02442,-0.26847 0.05091,-0.57619 -0.09449,-0.8032 -0.179189,-0.27976 -0.538432,-0.40561 -0.850448,-0.51972 -0.194544,-0.0712 -0.407667,-0.0787 -0.614209,-0.0945 -0.188439,-0.0144 -0.447151,-0.14615 -0.566968,0 -0.05091,0.0621 9.87e-4,0.1706 0.04725,0.23624 z"
       id="path202"
       inkscape:connector-curvature="0"
       sodipodi:nodetypes="sssssssssssss" />
    <path
       style="fill:none;stroke:#000000;stroke-width:0.26458332px;stroke-linecap:butt;stroke-linejoin:miter;stroke-opacity:1"
       d="m 78.290582,191.8768 c -0.01,0.23967 0.456368,0.15906 0.661458,0.28348 0.191372,0.1161 0.394851,0.23946 0.519716,0.42523 0.119494,0.17778 0.186824,0.40001 0.188989,0.61421 0.0012,0.11465 -0.08986,0.21617 -0.09449,0.33073 -0.0032,0.0802 -0.01485,0.18532 0.04725,0.23623 0.109615,0.0899 0.298446,0.0634 0.425223,0 0.140862,-0.0704 0.233679,-0.22856 0.283482,-0.37797 0.104587,-0.31376 0.114745,-0.682 0,-0.99219 -0.05038,-0.13618 -0.163704,-0.24866 -0.283482,-0.33073 -0.234211,-0.16048 -0.53131,-0.20171 -0.803199,-0.28348 -0.124367,-0.0374 -0.248201,-0.0995 -0.377975,-0.0945 -0.199067,0.008 -0.558693,-0.0101 -0.566972,0.18899 z"
       id="path204"
       inkscape:connector-curvature="0"
       sodipodi:nodetypes="sssssssssssss" />
    <path
       style="fill:none;stroke:#000000;stroke-width:0.26458332px;stroke-linecap:butt;stroke-linejoin:miter;stroke-opacity:1"
       d="m 81.50338,190.45939 c 0.267939,0.1656 0.528574,0.349 0.755952,0.56697 0.16158,0.1549 0.356587,0.30666 0.425222,0.51971 0.07742,0.24032 -0.136543,0.5198 -0.04725,0.75596 0.02363,0.0625 0.07579,0.13104 0.14174,0.14174 0.173807,0.0282 0.36719,-0.0951 0.472472,-0.23624 0.162557,-0.21792 0.151294,-0.5315 0.14174,-0.8032 -0.0046,-0.12979 -0.01856,-0.27262 -0.09449,-0.37797 -0.120065,-0.16658 -0.356533,-0.20609 -0.519719,-0.33073 -0.186062,-0.14212 -0.297738,-0.39804 -0.519715,-0.47248 -0.329852,-0.11062 -0.97493,-0.24738 -1.039435,0.0945 -0.01959,0.10382 0.193614,0.0862 0.283483,0.14174 z"
       id="path206"
       inkscape:connector-curvature="0"
       sodipodi:nodetypes="ssssssssssss" />
    <path
       style="fill:none;stroke:#000000;stroke-width:0.26458332px;stroke-linecap:butt;stroke-linejoin:miter;stroke-opacity:1"
       d="m 83.960224,189.37271 c -0.0088,0.23237 0.398276,0.24446 0.614212,0.33073 0.16675,0.0666 0.37884,0.0304 0.519715,0.14174 0.154817,0.12236 0.217747,0.33366 0.283483,0.51972 0.05865,0.16602 0.0932,0.34364 0.0945,0.51971 7.05e-4,0.0958 -0.03935,0.18802 -0.04725,0.28349 -0.0039,0.0471 0,0.0945 0,0.14174 0,0.063 -0.04872,0.14904 0,0.18898 0.124207,0.10182 0.361691,0.0218 0.472471,-0.0945 0.219687,-0.23061 0.201252,-0.63205 0.14174,-0.94494 -0.06461,-0.33967 -0.251706,-0.67924 -0.519715,-0.89769 -0.308829,-0.25172 -0.735971,-0.39719 -1.13393,-0.37798 -0.154932,0.007 -0.419357,0.034 -0.425226,0.189 z"
       id="path208"
       inkscape:connector-curvature="0"
       sodipodi:nodetypes="sssssssssssss" />
    <path
       style="fill:none;stroke:#000000;stroke-width:0.26458332px;stroke-linecap:butt;stroke-linejoin:miter;stroke-opacity:1"
       d="m 86.984033,188.28603 c -0.04775,0.20643 0.282529,0.33133 0.472472,0.42522 0.22983,0.11361 0.558958,-0.0223 0.755952,0.14174 0.168551,0.14039 0.21158,0.39624 0.236235,0.61421 0.01252,0.11066 -0.03383,0.22018 -0.04725,0.33073 -0.01907,0.15712 -0.10046,0.32341 -0.04725,0.47247 0.01498,0.042 0.05157,0.0826 0.0945,0.0945 0.125158,0.0347 0.275238,-0.0151 0.377976,-0.0945 0.156107,-0.12071 0.234724,-0.3285 0.283483,-0.51971 0.05837,-0.22891 0.09041,-0.49046 0,-0.70871 -0.07671,-0.18519 -0.26261,-0.30801 -0.425225,-0.42522 -0.228549,-0.16473 -0.484445,-0.30279 -0.755952,-0.37798 -0.197892,-0.0548 -0.409912,-0.0678 -0.614212,-0.0472 -0.114069,0.0115 -0.304891,-0.0172 -0.330729,0.0945 z"
       id="path210"
       inkscape:connector-curvature="0"
       sodipodi:nodetypes="ssssssssssssss" />
    <path
       style="fill:none;stroke:#000000;stroke-width:0.26458332px;stroke-linecap:butt;stroke-linejoin:miter;stroke-opacity:1"
       d="m 90.669301,187.9553 c -0.02728,0.21709 0.420298,0.16838 0.566965,0.33073 0.127563,0.14121 0.186735,0.33597 0.236235,0.51971 0.04117,0.15283 0.02011,0.31655 0.04725,0.47248 0.01113,0.064 -0.0063,0.15227 0.04725,0.18898 0.104737,0.0718 0.277977,0.031 0.377976,-0.0472 0.172764,-0.13517 0.227934,-0.39502 0.236235,-0.61422 0.0062,-0.1643 -0.04763,-0.33763 -0.141742,-0.47246 -0.135211,-0.19371 -0.346845,-0.33946 -0.566963,-0.42523 -0.147475,-0.0575 -0.314827,-0.0613 -0.472471,-0.0472 -0.114192,0.0102 -0.31644,-0.0193 -0.330735,0.0944 z"
       id="path212"
       inkscape:connector-curvature="0"
       sodipodi:nodetypes="sssssssssss" />
    <path
       style="fill:none;stroke:#000000;stroke-width:0.26458332px;stroke-linecap:butt;stroke-linejoin:miter;stroke-opacity:1"
       d="m 53.580388,209.54719 1.039435,0.33073 0.708705,-0.42523 1.228423,-1.41741 1.748139,-1.03943 2.315105,-1.22843 2.362352,-0.7087 0.661458,-0.37798 0.236233,0.14175 0.425226,0.37797 0.566962,0.33073 2.598587,-0.7087 3.307291,-1.13393 0.141743,-0.33073 v -0.56697 l 0.04725,-0.14174 2.220609,-0.61421 0.14406,0.0386 -0.09681,0.24488 -0.188989,0.0473 -0.661459,0.47247 -0.472469,0.66146 -0.614211,0.61421 -1.181177,1.41741 -0.472469,0.89769 -1.417413,2.008 -0.377976,1.15755 -0.519715,0.96857 -0.779577,1.1103 -0.307107,0.82683 -0.401598,0.44884 -1.630023,2.008 -0.968563,0.73233 -0.212611,0.47247 h 0.496093 l 0.944941,-0.7087 2.574962,-2.83483 1.441035,-2.88207 1.55915,-2.50409 1.582777,-1.79538 0.850445,-1.13393 3.165551,-3.26005 0.472469,-0.35435 0.165365,0.0709 0.307107,0.18899 2.882067,-1.13393 0.0945,-1.13393 1.511903,-0.7087 5.575149,-2.88207 4.819197,-1.88988 2.551338,-0.89769 1.13393,-0.47248 -0.236236,-0.42522 h -0.803198 l -2.4096,0.75595 -6.945313,2.69308 -1.039441,0.42515 -1.842634,0.89769 -2.55134,1.37017 -0.425223,0.33073 -0.519717,-0.56697 -1.133929,0.14174 -1.74814,0.47247 -0.188988,0.61421 -0.236235,0.37798 -0.803199,0.37798 -1.464658,0.61421 -2.69308,0.8032 -0.661459,-0.18899 -1.653645,0.42522 -4.252233,1.18118 -0.141741,0.8032 -0.566964,0.42522 -2.882068,0.8032 -0.944941,0.51972 -1.511905,0.8032 -1.039434,0.85044 -1.74814,1.6064 -0.944941,1.37017 z"
       id="path214"
       inkscape:connector-curvature="0" />
    <path
       style="fill:none;stroke:#000000;stroke-width:0.26458332px;stroke-linecap:butt;stroke-linejoin:miter;stroke-opacity:1"
       d="m 56.509704,210.20865 0.236235,-0.47248 0.47247,-0.6142 0.661458,-0.51972 0.236235,-0.51972 h -0.47247 l -0.564884,0.15058 -0.300678,0.30067 -0.267269,0.31739 -0.434313,0.41761 -0.300679,0.38419 -0.701582,0.95215 -0.283974,0.43432 -0.634765,0.63476 -1.03567,1.03567 -0.801808,0.51783 -0.517835,0.38421 -0.701583,0.21715 -0.467721,0.30068 -1.687139,0.25057 -0.484426,0.0668 -0.300678,0.10023 -0.534539,0.28397 0.484426,0.0668 0.417608,0.11693 h 0.835218 l 1.26953,-0.0167 1.236121,-0.35079 1.653731,-0.86862 2.004521,-1.45328 0.701582,-1.62032 z"
       id="path216"
       inkscape:connector-curvature="0" />
    <path
       style="fill:none;stroke:#000000;stroke-width:0.26458332px;stroke-linecap:butt;stroke-linejoin:miter;stroke-opacity:1"
       d="m 55.057522,214.17985 0.400905,-0.23386 h 0.768399 l -0.03341,1.00226 -0.03341,0.33409 -0.133635,0.60135 -0.23386,0.63477 -0.400905,0.30068 v -0.50113 l 0.03341,-0.50113 -0.100226,-0.33409 -0.334087,-0.56795 -0.300678,-0.33408 0.200452,-0.40091 z"
       id="path218"
       inkscape:connector-curvature="0" />
    <path
       style="fill:none;stroke:#000000;stroke-width:0.26458332px;stroke-linecap:butt;stroke-linejoin:miter;stroke-opacity:1"
       d="m 47.607384,220.1266 -0.06682,0.80181 -0.367496,0.16704 -2.338608,1.77066 -1.002261,0.96885 -0.200452,0.66818 0.167044,0.36749 0.100226,0.50113 h -0.334084 l -0.300678,-0.36749 -0.300679,-0.70158 -0.701582,-0.53454 0.06682,-0.26727 1.069078,-0.60136 z"
       id="path220"
       inkscape:connector-curvature="0" />
    <path
       style="fill:none;stroke:#000000;stroke-width:0.26458332px;stroke-linecap:butt;stroke-linejoin:miter;stroke-opacity:1"
       d="m 50.413714,219.79251 1.202713,-0.10022 0.868626,-0.40091 1.637026,-0.70158 2.138156,-1.23612 1.703843,-0.93545 0.300679,-0.0668 0.133634,0.30067 -0.03341,0.30068 -0.03341,0.46772 -0.06682,0.30068 -0.300679,0.10023 -0.367495,0.20045 -0.701583,0.20045 -0.734991,0.50114 -0.601356,0.4009 -0.734991,0.26727 0.634765,0.13363 1.236121,-0.20045 0.668174,-0.13363 1.236121,-0.16705 -0.267269,0.46772 -0.902035,0.66818 -0.7684,0.10022 -1.369756,0.10023 -1.236121,0.20045 -1.302939,0.30068 -0.835217,0.16704 -0.233861,0.40091 -0.334087,0.0668 -0.367496,-0.50114 -0.50113,-0.56794 -0.167044,-0.20046 -0.200452,-0.10022 -0.03341,-0.16704 0.133635,-0.13364 z"
       id="path222"
       inkscape:connector-curvature="0" />
    <path
       style="fill:none;stroke:#000000;stroke-width:0.26458332px;stroke-linecap:butt;stroke-linejoin:miter;stroke-opacity:1"
       d="m 47.20648,224.70359 0.801809,-0.70158 0.300678,-0.10023 0.167043,0.40091 0.26727,0.56794 0.06682,0.10023 -0.03341,0.23386 -0.23386,0.10023 -0.467722,-0.0334 -0.367496,-0.13364 z"
       id="path224"
       inkscape:connector-curvature="0" />
    <path
       style="fill:none;stroke:#000000;stroke-width:0.26458332px;stroke-linecap:butt;stroke-linejoin:miter;stroke-opacity:1"
       d="m 45.836724,226.00653 0.701582,-0.70158 0.200452,0.33408 -0.03341,0.16705 0.133634,0.33408 0.167044,0.0668 0.03341,0.43431 h -0.26727 l -0.367496,-0.16704 -0.334086,-0.16704 z"
       id="path226"
       inkscape:connector-curvature="0" />
    <path
       style="fill:none;stroke:#000000;stroke-width:0.26458332px;stroke-linecap:butt;stroke-linejoin:miter;stroke-opacity:1"
       d="m 49.912584,226.2738 1.03567,-1.73725 0.902034,-1.00226 0.26727,-0.16705 0.23386,0.30068 -0.367495,0.43431 -0.334087,0.63477 -0.334087,0.73499 0.06682,0.16704 0.23386,0.0334 0.567948,-0.13363 2.104747,-1.03567 0.334087,0.10022 -0.167043,0.33409 -0.7684,0.4009 -1.971113,1.00227 -0.534539,0.36749 -0.634765,-0.0668 h -0.734993 l 0.267269,-0.4009 z"
       id="path228"
       inkscape:connector-curvature="0" />
    <path
       style="fill:none;stroke:#000000;stroke-width:0.26458332px;stroke-linecap:butt;stroke-linejoin:miter;stroke-opacity:1"
       d="m 48.810097,229.04672 0.734991,0.4009 0.501131,-0.46772 1.069078,-0.56794 0.668174,-0.60136 0.7684,-0.20045 0.267269,-0.40091 -0.167043,-0.0334 H 52.31801 l -0.434313,0.13364 -0.601357,0.10022 -1.035669,0.33409 -0.7684,0.66818 -0.668174,0.36749 z"
       id="path230"
       inkscape:connector-curvature="0" />
    <path
       style="fill:none;stroke:#000000;stroke-width:0.26458332px;stroke-linecap:butt;stroke-linejoin:miter;stroke-opacity:1"
       d="m 57.462948,211.47375 0.801809,-0.26727 0.902034,0.10022 0.567948,0.10023 0.601357,0.50113 0.300678,0.4009 0.167043,0.63477 -0.06682,0.80181 -0.233861,0.80181 -0.133635,0.86862 -0.100226,0.53454 -0.06682,0.73499 0.334087,0.40091 0.367495,0.0334 0.534539,0.33408 -0.100226,0.13364 -0.267269,0.0668 -0.567948,0.0668 -0.668174,0.0668 -0.334087,-0.0334 -0.100226,-0.56794 -0.03341,-0.96886 0.200453,-0.90203 -0.03341,-1.03567 -0.133635,-1.10249 -0.300678,-0.66817 -0.334087,-0.50113 -0.50113,-0.13364 z"
       id="path232"
       inkscape:connector-curvature="0" />
    <path
       style="fill:none;stroke:#000000;stroke-width:0.26458332px;stroke-linecap:butt;stroke-linejoin:miter;stroke-opacity:1"
       d="m 62.03994,211.6742 0.567946,-0.20045 1.369756,-0.40091 1.035669,-0.30067 c 0,0 0.267272,0 0.400905,0 0.133636,0 0.400904,0 0.400904,0 h 0.100227 0.167042 l 0.133636,-0.50113 0.100227,-0.50114 0.03341,-0.26726 h -0.534541 l -0.601355,0.26726 -1.202714,0.3675 -1.202714,0.63477 -0.902033,0.63476 z"
       id="path234"
       inkscape:connector-curvature="0" />
    <path
       style="fill:none;stroke:#000000;stroke-width:0.26458332px;stroke-linecap:butt;stroke-linejoin:miter;stroke-opacity:1"
       d="m 75.833735,202.93261 1.086683,-0.80321 0.425223,-0.28348 -0.09449,0.47247 -0.944941,0.66146 -0.944941,1.27567 -1.133928,1.32292 -1.653645,2.07887 -2.362354,3.82701 -1.228421,1.88988 -0.614211,1.03943 -1.41741,1.27567 -0.755954,0.18899 0.0945,-0.18899 0.472469,-0.47247 4.110489,-5.81138 2.504094,-3.49628 z"
       id="path236"
       inkscape:connector-curvature="0" />
    <path
       style="fill:none;stroke:#000000;stroke-width:0.26458332px;stroke-linecap:butt;stroke-linejoin:miter;stroke-opacity:1"
       d="m 71.912234,210.25589 1.039434,0.8032 1.039435,0.51972 -0.236236,0.61421 -0.283483,0.28348 -0.330729,0.0472 -0.330729,-0.18899 -0.519716,-0.18899 -0.897694,-0.18898 -0.661458,-0.28349 0.330729,-0.51971 z"
       id="path238"
       inkscape:connector-curvature="0" />
    <path
       style="fill:none;stroke:#000000;stroke-width:0.26458332px;stroke-linecap:butt;stroke-linejoin:miter;stroke-opacity:1"
       d="m 80.22771,208.27152 0.236233,0.51972 -0.566962,0.66145 -0.472472,0.33073 -1.322917,1.18118 -1.748139,1.55915 -0.992187,1.08668 -1.228424,0.99219 -1.27567,1.6064 -1.417409,1.79538 -0.803199,1.41742 -1.086683,1.74814 -1.41741,1.41741 -0.850445,0.42522 -0.425225,0.18899 0.04725,-0.23624 2.22061,-2.55134 0.850448,-1.6064 1.511903,-2.50409 1.322917,-2.03162 2.4096,-2.45684 3.307292,-2.74033 1.181174,-0.85045 z"
       id="path240"
       inkscape:connector-curvature="0" />
    <path
       style="fill:none;stroke:#000000;stroke-width:0.26458332px;stroke-linecap:butt;stroke-linejoin:miter;stroke-opacity:1"
       d="m 84.621682,211.05909 0.944941,-0.37797 0.755952,0.23623 0.661458,0.37798 0.850448,0.66146 0.566962,1.13393 0.377979,1.65364 0.377975,0.89769 0.614212,-0.0472 0.803198,-0.94494 -0.09449,-1.18118 -0.614212,-1.98437 -1.795388,-1.88989 -1.370163,-0.47246 -1.039434,-0.28349 c 0,0 -0.425223,0.0945 -0.708705,0.18899 -0.283483,0.0945 -2.834823,1.03943 -2.834823,1.03943 l -1.889879,1.27567 -1.889882,1.46466 -1.41741,1.7009 -1.511906,2.03162 -1.653645,2.03162 -1.41741,1.74814 -1.889882,2.03162 -1.27567,1.03944 -0.566962,0.47247 0.188986,0.14174 0.566965,-0.23624 2.220611,-1.32291 1.370163,-1.13393 1.464657,-1.65365 1.27567,-1.65365"
       id="path242"
       inkscape:connector-curvature="0" />
    <path
       style="fill:none;stroke:#000000;stroke-width:0.26458332px;stroke-linecap:butt;stroke-linejoin:miter;stroke-opacity:1"
       d="m 84.621682,211.05909 -1.228423,0.66146 -1.748139,0.75595 -3.354538,2.74033 -2.598584,2.78761"
       id="path244"
       inkscape:connector-curvature="0" />
    <path
       style="fill:none;stroke:#000000;stroke-width:0.26458332px;stroke-linecap:butt;stroke-linejoin:miter;stroke-opacity:1"
       d="m 72.29021,224.05202 1.55915,-0.89769 1.606399,-1.37016 1.559153,-1.46466 1.653645,-1.51191 0.377976,-0.0945 0.236236,0.23623 0.236236,0.42523 -0.04725,0.42522 0.141742,0.14174 0.14174,-0.18898 0.0945,-0.70871 -0.141742,-1.13393 0.236235,-0.0945 1.039435,-0.66146 0.236235,0.42522 v 0.47247 0.70871 l 0.566963,-0.14174 0.188989,-0.75596 -0.04725,-0.94494 0.14174,-0.42522 0.661459,-0.37798 0.661458,-0.0945 h 0.236236 v 1.03944 l 0.09449,0.18898 0.0945,0.14174 0.330729,-0.42522 0.425223,-0.56696 0.04725,-0.8977 0.897695,-0.0945 0.236233,0.51972 0.283482,0.18898 0.236236,-0.0945 0.09449,-0.37798 -0.188986,-0.94494 -0.472472,-0.51971 -0.661458,-0.0472 -1.937129,0.51972 -1.133927,0.7087 -2.362351,1.6064 -1.842635,1.79539 -1.511903,1.27567 -1.039434,1.18117 -2.078871,1.84264 -0.992188,0.56696 z"
       id="path246"
       inkscape:connector-curvature="0" />
    <path
       style="fill:none;stroke:#000000;stroke-width:0.26458332px;stroke-linecap:butt;stroke-linejoin:miter;stroke-opacity:1"
       d="m 92.984405,212.94897 -0.04725,0.8032 -0.04725,0.66146 -0.283482,0.85045 -0.661458,0.94494 -0.566965,0.56696 -0.236234,0.28349 0.09449,0.18898 0.94494,-0.47247 1.086681,-1.08668 0.425223,-1.41741 -0.04725,-0.75595 z"
       id="path248"
       inkscape:connector-curvature="0" />
    <path
       style="fill:none;stroke:#000000;stroke-width:0.26458332px;stroke-linecap:butt;stroke-linejoin:miter;stroke-opacity:1"
       d="m 79.09378,226.8396 0.472472,-1.22843 0.803198,-1.88987 1.41741,-1.98438 2.126117,-2.12612 1.511904,-0.89769 2.456846,-0.75595 c 0,0 1.511904,0 1.795386,0 0.283483,0 0.992188,0.14174 0.992188,0.14174 l -0.566963,-0.61421 -1.511906,-0.23624 -1.511906,-0.23623 -2.220608,0.66145 -1.370163,0.85045 -1.842635,1.55915 -1.322917,1.74814 -0.897694,2.03163 -0.614212,1.65364 0.04725,1.22842 z"
       id="path250"
       inkscape:connector-curvature="0" />
    <path
       style="fill:none;stroke:#000000;stroke-width:0.26458332px;stroke-linecap:butt;stroke-linejoin:miter;stroke-opacity:1"
       d="m 69.266401,226.98134 0.897692,-0.0472 1.984374,-0.56696 1.559153,-0.56697 0.850448,-0.23623 0.661458,-0.23624 0.330729,0.51972 -0.566965,0.85045 -0.519718,0.37797 -0.661459,0.28349 h -0.803198 l -0.897694,0.14174 h -0.236236 v 0.14174 l 0.377978,0.28348 0.661459,0.33073 1.55915,0.42522 3.212798,0.0945 -0.09449,-0.51972 -0.04725,-0.75595 0.09449,-1.32292 0.708705,-1.74814 0.566965,-1.51191 0.14174,-0.75595 v -0.33073 l -0.236236,-0.0945 h -0.283476 l -0.614212,0.42522 -1.27567,1.03944 -1.370163,0.89769 -1.795389,1.18118 -2.551337,1.08668 h -0.803201 l -0.377976,0.23623 -0.236236,0.18899 z"
       id="path252"
       inkscape:connector-curvature="0" />
    <path
       style="fill:none;stroke:#000000;stroke-width:0.26458332px;stroke-linecap:butt;stroke-linejoin:miter;stroke-opacity:1"
       d="m 68.982918,228.446 0.850445,0.7087 0.992188,0.47247 1.181177,0.51972 0.566965,0.23624 0.708705,0.18898 0.992187,0.23624 1.464657,0.23623 h 1.559152 l 1.511903,-0.18899 2.078871,-0.75595 1.133928,-0.85044 0.141742,-0.47247 h -0.188989 l -0.236236,0.18899 -0.283482,0.0945 -1.842633,0.66146 -1.08668,0.28348 -1.889882,0.14174 -3.401785,-0.33073 -2.031624,-0.61421 -2.031622,-0.89769 z"
       id="path256"
       inkscape:connector-curvature="0" />
    <path
       style="fill:none;stroke:#000000;stroke-width:0.26458332px;stroke-linecap:butt;stroke-linejoin:miter;stroke-opacity:1"
       d="m 68.841176,231.75329 0.614212,0.14174 2.834822,1.79539 0.708705,0.33073 0.944941,0.37797 0.708705,0.33073 1.559152,0.33073 1.511904,0.0473 1.511905,-0.18899 1.700893,-0.70871 0.661458,-0.47247 0.755952,-0.42522 0.897694,-0.85045 0.566965,-0.47247 0.330729,0.51972 -0.188989,0.47247 -0.566965,0.8032 -1.842632,1.13393 -0.897695,0.56696 -2.456844,0.61421 -1.653645,0.0472 -1.748142,-0.42522 -1.511903,-0.37798 -1.417413,-0.89769 -1.322917,-0.85045 -0.944938,-0.7087 -0.472472,-0.61421 z"
       id="path258"
       inkscape:connector-curvature="0" />
    <path
       style="fill:none;stroke:#000000;stroke-width:0.26458332px;stroke-linecap:butt;stroke-linejoin:miter;stroke-opacity:1"
       d="m 69.691623,236.10001 1.322917,1.03944 0.661458,0.37798 1.322917,0.6142 1.511903,0.56698 1.039437,0.42521 h 1.984375 l 1.937126,-0.0473 0.755954,-0.28348 2.078868,-0.80319 1.41741,-0.75594 2.031622,-1.18119 0.566965,-0.37798 h 0.377976 l 0.330729,0.18899 -0.236233,0.42522 -1.039437,1.08669 -1.275668,0.75594 -0.94494,0.47247 -1.46466,0.85045 -1.984375,0.51972 -1.606399,0.18899 -2.078868,0.0473 -2.83482,-0.70872 -1.511906,-0.94493 -1.464656,-0.8977 -0.803201,-0.94494 -0.236236,-0.33073 z"
       id="path260"
       inkscape:connector-curvature="0" />
    <path
       style="fill:none;stroke:#000000;stroke-width:0.26458332px;stroke-linecap:butt;stroke-linejoin:miter;stroke-opacity:1"
       d="m 72.573693,241.53343 0.897691,0.37796 0.755954,0.42524 0.566963,0.33073 1.700892,0.51972 1.370166,0.47247 2.267855,-0.0473 1.322917,-0.18899 1.322916,-0.47247 1.370166,-0.6142 1.322917,-0.8032 1.889879,-1.18118 1.086683,-0.70871 0.755952,-0.56697 0.330729,0.0473 0.14174,0.51972 -0.283482,0.8032 -0.519716,0.6142 -0.992188,0.85045 -1.748139,1.0867 -0.377978,0.33073 -2.504091,1.2284 -2.078868,0.28351 -1.086682,0.14172 -1.559152,-0.0472 -0.614211,-0.0945 -3.779762,-1.7009 -1.228423,-0.89769 z"
       id="path262"
       inkscape:connector-curvature="0" />
    <path
       style="fill:none;stroke:#000000;stroke-width:0.26458332px;stroke-linecap:butt;stroke-linejoin:miter;stroke-opacity:1"
       d="m 76.731429,246.16364 0.944941,0.28348 3.307292,0.6142 2.976562,0.18899 2.126115,-0.70871 1.511906,-0.8032 3.543527,-2.3151 0.519716,-0.56695 0.283483,-0.14176 H 92.2757 l 0.377976,0.2835 0.0945,0.37796 -0.283483,0.51972 -0.661458,0.66145 -1.417413,1.37018 -1.322917,0.70871 -2.456844,1.32292 -2.267857,0.37795 -2.598587,-0.0945 -2.456844,-0.66146 z"
       id="path264"
       inkscape:connector-curvature="0" />
    <path
       style="fill:none;stroke:#000000;stroke-width:0.26458332px;stroke-linecap:butt;stroke-linejoin:miter;stroke-opacity:1"
       d="m 73.70762,247.29757 0.850448,0.51972 0.755951,0.37796 1.511903,0.66145 1.984375,0.61423 1.6064,0.28348 0.850447,0.0473 0.708705,0.0472 h 0.803198 l 0.0945,0.18899 -0.377976,0.14174 -0.377978,0.14174 -0.661458,0.0945 -1.795386,-0.23625 -1.322917,-0.28347 -1.464656,-0.42522 -0.708708,-0.0472 h -0.236233 v 0.89768 l 0.04725,1.22843 -0.283483,0.18899 h -0.377976 -0.283482 l -0.377976,-1.93712 -0.425223,-0.99218 -0.472471,-0.80323 z"
       id="path266"
       inkscape:connector-curvature="0" />
    <path
       style="fill:none;stroke:#000000;stroke-width:0.26458332px;stroke-linecap:butt;stroke-linejoin:miter;stroke-opacity:1"
       d="m 71.995726,253.56859 0.03341,0.36751"
       id="path268"
       inkscape:connector-curvature="0" />
    <path
       style="fill:none;stroke:#000000;stroke-width:0.26458332px;stroke-linecap:butt;stroke-linejoin:miter;stroke-opacity:1"
       d="m 86.528508,222.56543 0.935445,0.86863 1.269529,1.00226 1.5368,0.66817 2.338608,0.20046 1.469982,-0.0668 0.400905,0.0668 -0.467723,0.33408 -1.403164,0.20046 -2.204972,-0.0668 -1.804069,-0.46772 -0.868627,-0.46773 -0.935443,-0.8018 -0.334086,-0.53454 -0.267272,-0.86863 z"
       id="path270"
       inkscape:connector-curvature="0" />
    <path
       style="fill:none;stroke:#000000;stroke-width:0.26458332px;stroke-linecap:butt;stroke-linejoin:miter;stroke-opacity:1"
       d="m 83.922632,222.89952 -0.467722,1.26953 v 1.33635 l 0.200451,1.87088 0.734991,1.1359 0.734991,1.26953 1.403165,1.26953 1.269532,0.80181 0.267268,0.93544 0.534541,1.60362 0.734991,1.33635 1.069078,1.46999 1.46998,1.67042 1.670436,1.87089 2.539061,1.80407 2.071338,1.60361 1.202714,0.66818 0.200451,0.53453 -0.601355,0.13365 h -0.334087 l -0.400905,0.20044 -0.868627,0.33409 -1.269529,0.66818 -0.668173,0.46773 -1.603619,0.8018 -1.202713,0.63476 -1.971112,1.06907 -0.935445,0.33409 -1.23612,0.43432 -1.135896,0.3675 -2.037929,0.56796 -2.839739,0.93543 -2.706105,0.4009 -2.906556,0.56795 -1.536798,0.0668 h -0.400905 l -0.133636,-0.4677 0.334087,-0.20048 1.102487,-0.16703 2.305201,-0.30067 2.037929,-0.46773 3.374279,-0.8018 2.572467,-0.63478 5.445617,-2.47225 2.438834,-1.46997 2.505652,-1.06907 0.868627,-0.33409 -0.200451,-0.20045 -0.367496,-0.10022 -2.572469,-1.67045 -2.171565,-2.03793 -2.539061,-2.77291 -1.703843,-2.20498 -0.902036,-1.93771 -0.434313,-1.23612 -0.334087,-0.66817 -0.501129,-0.20045 -1.236123,-0.86863 -0.20045,-0.46772 -0.902037,-1.03567 -0.668173,-1.26953 -0.400905,-0.96885 -0.06682,-1.5368 0.167044,-1.20272 0.534538,-1.03566 0.434313,-0.7684 0.167045,-0.13364 z"
       id="path272"
       inkscape:connector-curvature="0" />
    <path
       style="fill:none;stroke:#000000;stroke-width:0.26458332px;stroke-linecap:butt;stroke-linejoin:miter;stroke-opacity:1"
       d="m 102.81179,229.29644 0.28348,-0.8032 0.42522,-0.75595 1.18118,-0.8032 1.6064,-0.75595 1.88988,-1.03943 1.74814,-1.18118 1.93712,-2.17336 2.12612,-2.22061 0.56697,-0.8977 h 0.66146 l 0.0945,0.75596 -0.0473,0.33073 h 0.33072 l 0.23624,-0.23624 v -1.27567 l -0.66146,-0.33073 -0.61421,-0.0472 -0.66146,0.47247 -1.46466,1.51191 -1.70089,1.98437 -1.65365,1.55916 -1.37016,1.18117 -1.84263,0.8032 -1.93713,1.13393 -0.94494,0.47247 -0.99219,1.32292 0.18899,0.85044 0.37797,0.61421 0.28349,-0.0472 z"
       id="path274"
       inkscape:connector-curvature="0" />
    <path
       style="fill:none;stroke:#000000;stroke-width:0.26458332px;stroke-linecap:butt;stroke-linejoin:miter;stroke-opacity:1"
       d="m 91.00003,232.65098 0.897694,-0.61421 0.614212,-0.33073 h 1.842632 l 0.850448,0.42522 0.803198,0.37798 1.795388,1.08668 1.039434,0.66146 1.464654,1.6064 0.85045,1.37018 0.51972,1.70087 0.51972,1.79538 -0.0473,1.51191 -0.37798,1.22843 -0.47247,0.8032 -0.66146,0.0945 -0.47247,-0.37795 -1.606399,-1.0867 -0.04725,-0.56695 0.330729,0.23622 0.992188,0.51972 0.897692,-0.18899 0.47247,-0.85045 v -0.56695 l -0.33073,-0.8032 -0.0473,-0.2835 h -0.18899 -0.33073 l -0.708701,0.0945 -0.755952,0.33073 -0.236236,0.37799 -0.519715,0.28347 -0.425225,0.0945 0.141742,-0.80319 0.566965,-0.37799 1.275668,-1.13392 0.377974,-0.42521 -0.0945,-0.47247 -0.283482,-0.14174 -0.425223,-0.0473 -0.614212,0.23622 -1.133927,1.08669 -0.566965,0.51973 h -0.283482 l -0.14174,-0.33073 0.283482,-0.47247 1.039434,-0.94496 0.897694,-0.75594 v -0.37798 l -0.94494,-0.56695 -0.377976,0.23622 -1.228424,1.08669 -0.425222,0.47247 -0.330729,0.28347 -0.377979,0.0945 -0.04725,-0.37796 0.472471,-0.75597 0.755952,-1.03941 0.661458,-0.51973 0.09449,-0.33073 -0.14174,-0.14174 -0.377976,-0.28348 -0.283483,0.0945 -0.236235,0.37798 -1.937129,1.70089 -0.236233,-0.0473 0.236233,-0.6142 1.370164,-1.88988 -0.09449,-0.37798 -0.472469,-0.28348 -0.614212,0.23624 -0.472471,0.47247 -0.614209,0.85044 -0.330729,0.18899 -0.18899,-0.47247 0.377976,-0.61421 0.661458,-0.70871 0.141743,-0.33073 v -0.23623 l -0.472472,-0.28348 -0.425222,-0.0945 -0.283483,0.47247 -0.283482,0.33073 -0.661459,0.75595 -0.09449,-0.47246 0.236236,-0.75596 0.330729,-0.42522 0.09449,-0.23623 -0.708705,-0.0945 -0.330729,0.0945 z"
       id="path276"
       inkscape:connector-curvature="0" />
    <path
       style="fill:none;stroke:#000000;stroke-width:0.26458332px;stroke-linecap:butt;stroke-linejoin:miter;stroke-opacity:1"
       d="m 97.236637,226.65061 1.464659,0.47247 0.661459,0.56697 h -1.559153 l 0.377976,0.94494 0.661458,0.7087 0.33073,0.18899 0.708704,-0.51972 0.66146,-0.33073 0.14174,0.47247 -0.42522,0.66146 -0.330733,0.28348 -0.425222,0.18899 0.14174,0.33073 0.04725,0.23623 0.28348,0.33073 0.236235,0.28349 0.33073,0.0945 0.66146,-0.61421 0.56696,-0.37798 0.16537,-0.23623 0.16536,0.0236 0.0472,0.3071 -0.0236,0.16537 -0.11811,0.21261 -0.37798,0.4016 -0.37798,0.37798 -0.35435,0.44884 0.0709,0.4016 0.0945,0.18899 0.47247,0.42522 0.21261,0.23624 0.4961,-0.16537 0.85044,-1.13393 0.23624,-0.0945 0.14174,0.21261 -0.0236,0.35435 -0.0709,0.47247 -0.18899,0.47248 -0.30711,0.35435 -0.28348,0.21261 -0.18899,0.23623 0.0945,0.28349 0.33073,0.35435 0.30711,0.21261 0.33073,0.0473 0.59058,-0.82682 0.37798,-0.28349 h 0.35436 l 0.0945,0.35436 -0.35435,0.61421 -0.35436,0.49609 -0.33073,0.47247 0.0945,0.25986 0.73233,0.5197 0.21261,-0.23622 0.25986,-0.56696 0.33073,-0.37798 0.33073,-0.0709 0.14174,0.4016 v 0.25986 l -0.35435,0.59057 -0.14174,0.28351 -0.0473,0.35433 -0.0236,0.21261 0.30711,0.11811 h 0.16536 l 0.16536,-0.11811 0.11812,-0.21261 0.0236,-0.16537 0.0945,-0.28347 0.23624,-0.0473 0.21261,0.16537 -0.0236,0.2835 -0.16536,0.44884 -0.0236,0.82682 0.14174,0.0709 0.42522,0.11811 0.4016,-0.11811 0.0236,-0.40161 0.33073,0.0236 0.4016,0.73231 0.25986,1.22844 -0.21261,0.49609 -0.30711,-0.23625 -1.70089,-0.96856 -1.44103,-0.99218 -1.58278,-1.39378 -1.70089,-1.6064 -1.2993,-1.58277 -2.031617,-3.18918 -0.921319,-1.79539 -0.307105,-1.15755 0.02363,-1.2048 0.0945,-0.11811 z"
       id="path278"
       inkscape:connector-curvature="0" />
    <path
       style="fill:none;stroke:#000000;stroke-width:0.26458332px;stroke-linecap:butt;stroke-linejoin:miter;stroke-opacity:1"
       d="m 110.98367,241.40794 0.20045,-1.33636 0.60136,-0.46773 1.40316,-0.40089 1.40317,-0.0668 1.20271,-0.33409 1.46999,-0.46773 2.67269,-1.87088 1.1359,-1.1359 2.13815,-1.73725 2.47224,-2.00452 1.06908,-0.60136 h 0.46772 l 0.33409,0.13364 0.26727,-0.46772 -0.53454,-0.53454 h -0.63476 -0.43432 l -0.60135,0.30068 -1.26953,0.86862 -1.70385,1.36976 -2.80633,2.3052 -2.3386,1.73724 -0.7684,0.63476 -1.80407,0.60137 -0.80181,0.0334 -1.00226,0.10023 -1.03567,0.50112 -1.03567,0.73498 -0.33409,0.86863 -0.0668,1.00227 z"
       id="path280"
       inkscape:connector-curvature="0" />
    <path
       style="fill:none;stroke:#000000;stroke-width:0.26458332px;stroke-linecap:butt;stroke-linejoin:miter;stroke-opacity:1"
       d="m 101.42879,245.31676 0.86862,0.0668 1.10249,0.10023 c 0,0 0.7684,0.13364 0.90203,0.20044 0.13364,0.0668 1.1359,0.50112 1.1359,0.50112 l 0.7684,0.60138 0.0334,0.50112 -0.46772,0.13364 -1.63703,0.20045 -2.13816,0.23386 -2.539058,0.63476 -2.672693,0.53454 -3.173826,0.56796 -2.004523,0.70157 -1.937702,0.60137 -11.158503,3.77518 -1.102487,0.23386 -0.467723,0.13364 0.367496,0.66816 0.133636,0.33409 0.200451,0.33408 0.53454,-0.36748 1.403165,-0.56795 5.211754,-1.8709 10.72419,-3.07358 3.674957,-0.7016 2.104746,-0.53453 2.27179,-0.26726 2.23839,-0.3007 1.46998,-0.80179 0.50113,-0.50115 -0.0334,-0.50112 -0.30068,-0.60134 -1.40317,-0.76841 -1.5702,-0.46773 -1.80407,-0.0334 -1.03567,0.0334 z"
       id="path282"
       inkscape:connector-curvature="0" />
    <path
       style="fill:none;stroke:#000000;stroke-width:0.26458332px;stroke-linecap:butt;stroke-linejoin:miter;stroke-opacity:1"
       d="m 82.085154,257.64455 0.400904,0.43431 0.334087,-0.26725 0.100224,-0.46773 0.868627,-0.43432 0.501132,-0.26725 0.46772,0.0334 0.367495,0.10022 -0.03341,0.23387 0.03341,0.26728 h 0.300678 l 0.233863,-0.26728 0.133633,-0.33409 0.06682,-0.26726 c 0,0 0.233862,-0.20045 0.367495,-0.23386 0.133636,-0.0334 0.434314,-0.13364 0.434314,-0.13364 l 0.300678,0.0334 0.233859,0.4009 0.03341,0.53454 0.100227,0.26728 0.23386,-0.13364 0.267272,-0.76841 -0.03341,-0.86862 1.135896,-0.20045 0.300677,0.53454 0.100227,0.83521 0.300678,0.26728 0.434311,-1.13591 -0.03341,-0.60135 0.200451,-0.20044 0.367495,-0.16706 0.734992,-0.0668 c 0,0 -0.03341,0.36751 0,0.50112 0.03341,0.13364 0.03341,0.76841 0.03341,0.76841 l 0.03341,0.50114 h 0.300678 l 0.467723,-0.43431 0.06682,-0.63476 0.100227,-0.93546 0.23386,-0.20045 h 0.267271 l 0.300678,-0.0334 0.267269,0.0334 h 0.167044 c 0,0 -0.03341,0.3675 -0.06682,0.63476 -0.03341,0.26728 -0.06682,0.96885 -0.06682,0.96885 l 0.133635,0.4009 0.367496,0.0334 0.367496,-0.70156 0.434311,-1.00227 -0.133633,-0.63476 1.503391,-0.26729 -0.06682,0.60137 -0.200453,0.43432 -0.367496,0.7684 v 0.33406 l 0.334087,0.20048 1.002263,-0.7016 0.300677,-0.90204 0.334087,-0.73499 0.534538,-0.33409 0.601358,-0.0668 0.167042,0.23386 c 0,0 -0.06682,0.43432 -0.06682,0.60135 0,0.16705 -0.434311,1.03568 -0.434311,1.03568 l 0.06681,0.43432 0.300681,-0.0668 0.668173,-0.60134 0.601356,-0.96885 0.200453,-0.7016 0.43431,-0.16703 0.70158,-0.0334 0.46773,-0.0334 0.20045,0.10026 -0.30068,0.76837 c 0,0 -0.23386,0.53454 -0.30068,0.66818 -0.0668,0.13364 -0.13363,0.30067 -0.13363,0.30067 l 0.60135,-0.20045 0.53454,-0.4677 0.46772,-0.60137 0.16705,-0.50112 0.26727,-0.13364 0.43431,-0.0334 0.26727,0.7016 0.009,0.4106 0.16536,0.0354 0.2953,-0.18899 0.27167,-0.35433 0.18899,-0.6024 -0.0827,-0.88588 -0.17718,-0.27168 -0.16536,-0.0945 -5.374353,0.0591 c 0,0 -1.299295,0.11814 -1.511906,0.14176 -0.212612,0.0236 -2.622209,0.33073 -2.622209,0.33073 l -2.811198,0.61421 -3.141927,0.89767 -3.472656,1.27569 -2.574965,1.22841 -0.637833,0.51972 -0.18899,0.35436 0.04725,0.35435 z"
       id="path284"
       inkscape:connector-curvature="0" />
    <path
       style="fill:none;stroke:#000000;stroke-width:0.26458332px;stroke-linecap:butt;stroke-linejoin:miter;stroke-opacity:1"
       d="m 110.06421,247.06132 0.16536,0.56698 0.25986,0.49609 0.33073,0.42521 c 0,0 0,0.77957 -0.0236,1.01582 -0.0236,0.23624 -0.25986,1.06307 -0.25986,1.06307 l -0.3071,0.56695 -0.28349,0.44883 0.4016,0.0709 1.03944,-0.44884 0.77957,-0.82683 0.37798,-1.06306 -0.14174,-0.73232 -0.51972,-0.66146 -0.87407,-0.5906 -0.66146,-0.35436 -0.16536,0.0236 z"
       id="path286"
       inkscape:connector-curvature="0" />
    <path
       style="fill:none;stroke:#000000;stroke-width:0.26458332px;stroke-linecap:butt;stroke-linejoin:miter;stroke-opacity:1"
       d="m 68.0616,254.69172 0.283482,0.77957 0.307107,0.87407 0.897692,1.37018 1.370166,1.63001 0.401598,0.33073 0.04725,0.11811 -0.188986,0.11811 h -0.141743 l -0.307104,-0.11811 -0.685083,-0.54334 -1.41741,-1.37015 -0.661459,-1.22843 -0.118118,-1.37017 z"
       id="path288"
       inkscape:connector-curvature="0" />
    <path
       style="fill:none;stroke:#000000;stroke-width:0.26458332px;stroke-linecap:butt;stroke-linejoin:miter;stroke-opacity:1"
       d="m 72.928044,254.95157 0.448847,0.30712 0.614212,0.75595 0.590587,1.15755 0.448847,0.85045 0.259858,0.0945 0.4016,-0.23622 -0.236236,-1.7009 -0.519716,-0.73234 -0.566965,-0.42521 -0.850447,-0.3071 -0.496094,-0.0473 -0.165365,0.28348 z"
       id="path290"
       inkscape:connector-curvature="0" />
    <path
       style="fill:none;stroke:#000000;stroke-width:0.26458332px;stroke-linecap:butt;stroke-linejoin:miter;stroke-opacity:1"
       d="m 48.54858,259.53455 0.188988,0.28347 v 0.23625 l 0.165365,0.0945 0.47247,-0.0472 0.425223,-0.14174 0.259859,0.18899 0.09449,0.35436 -0.07087,0.59057 -0.283482,0.33073 -0.448846,0.40161 -0.496094,0.189 -0.307106,-0.30711 0.04725,-0.49609 -0.212612,-0.14176 -0.307105,0.14176 -0.519717,-0.21262 -0.165365,-0.3071 0.212612,-0.44887 0.685082,-0.59057 z"
       id="path292"
       inkscape:connector-curvature="0" />
    <path
       style="fill:none;stroke:#000000;stroke-width:0.26458332px;stroke-linecap:butt;stroke-linejoin:miter;stroke-opacity:1"
       d="m 52.588201,254.85708 0.614211,-0.11811 0.448847,0.33073 -0.09449,0.25985 -0.188988,0.25987 -0.377977,0.2126 -0.496093,0.33073 -0.779576,0.16536 -0.4016,-0.35436 -0.04725,-0.42521 0.448847,-0.33073 0.496093,-0.23624 z"
       id="path294"
       inkscape:connector-curvature="0" />
    <path
       style="fill:none;stroke:#000000;stroke-width:0.26458332px;stroke-linecap:butt;stroke-linejoin:miter;stroke-opacity:1"
       d="m 53.509518,255.93195 0.377976,0.0591 0.354353,0.0827 0.248046,0.23625 0.03544,0.33073 -0.448847,0.33073 -0.696894,0.46063 -0.484282,0.0945 -0.791387,-0.12993 -0.188988,-0.35436 0.177176,-0.36616 0.484282,-0.3071 0.661458,-0.2953 z"
       id="path296"
       inkscape:connector-curvature="0" />
    <path
       style="fill:none;stroke:#000000;stroke-width:0.26458332px;stroke-linecap:butt;stroke-linejoin:miter;stroke-opacity:1"
       d="m 52.351965,249.80166 0.614212,0.37796 0.637835,0.16537 0.94494,-0.0945 0.377976,-0.21262 0.212612,-0.51972 -0.354353,-0.23622 -0.826823,-0.14173 H 52.9898 l -0.54334,0.40158 z"
       id="path298"
       inkscape:connector-curvature="0" />
    <path
       style="fill:none;stroke:#000000;stroke-width:0.26458332px;stroke-linecap:butt;stroke-linejoin:miter;stroke-opacity:1"
       d="m 52.576927,248.40704 0.133635,0.18376 0.325734,0.21717 0.609709,0.0752 0.985556,-0.008 0.467722,-0.18375 0.1921,-0.20881 0.05011,-0.33407 -0.375848,-0.35914 -0.409256,-0.0418 h -0.743343 l -0.425961,0.0418 -0.425961,0.10856 -0.225509,0.18375 -0.1921,0.26728 z"
       id="path323"
       inkscape:connector-curvature="0" />
    <path
       style="fill:none;stroke:#000000;stroke-width:0.26458332px;stroke-linecap:butt;stroke-linejoin:miter;stroke-opacity:1"
       d="m 43.147324,250.26124 0.350791,-0.25056 0.467722,-0.13364 0.175396,-0.142 0.359143,-0.0417 h 0.977204 l 0.350792,0.0919 0.02506,0.23387 -0.15034,0.15033 c 0,0 -0.183747,0.12529 -0.23386,0.15034 -0.05011,0.0251 -0.375848,0.16706 -0.409257,0.18375 -0.03341,0.0167 -0.367495,0.16706 -0.367495,0.16706 0,0 -0.334087,0.0501 -0.375848,0.0501 -0.04176,0 -0.425961,-0.0167 -0.492778,-0.0167 -0.06682,0 -0.451018,-0.008 -0.451018,-0.008 l -0.217156,-0.1587 z"
       id="path325"
       inkscape:connector-curvature="0" />
    <path
       style="fill:none;stroke:#000000;stroke-width:0.26458332px;stroke-linecap:butt;stroke-linejoin:miter;stroke-opacity:1"
       d="m 43.347777,251.33868 -0.0084,0.4009 0.367495,0.11692 0.893683,0.21717 c 0,0 0.409256,-0.18376 0.542891,-0.25056 0.133635,-0.0668 0.676526,-0.33409 0.709935,-0.35915 0.03341,-0.0251 0.225508,-0.51784 0.225508,-0.51784 l -0.183748,-0.19212 -0.250565,-0.0919 -0.542891,0.0167 -0.492778,0.18375 -0.760048,0.19212 -0.425961,0.27561 z"
       id="path327"
       inkscape:connector-curvature="0" />
  </g>
</svg>
