<?xml version="1.0" encoding="UTF-8" standalone="no"?>
<!-- Created with Inkscape (http://www.inkscape.org/) -->

<svg
   xmlns:dc="http://purl.org/dc/elements/1.1/"
   xmlns:cc="http://creativecommons.org/ns#"
   xmlns:rdf="http://www.w3.org/1999/02/22-rdf-syntax-ns#"
   xmlns:svg="http://www.w3.org/2000/svg"
   xmlns="http://www.w3.org/2000/svg"
   xmlns:sodipodi="http://sodipodi.sourceforge.net/DTD/sodipodi-0.dtd"
   xmlns:inkscape="http://www.inkscape.org/namespaces/inkscape"
   width="210mm"
   height="297mm"
   viewBox="0 0 210 297"
   version="1.1"
   id="svg8"
   inkscape:export-filename="/home/seth/html/img/seth.png"
   inkscape:export-xdpi="96"
   inkscape:export-ydpi="96"
   inkscape:version="0.92.1 r15371"
   sodipodi:docname="drawing.svg">
  <defs
     id="defs2" />
  <sodipodi:namedview
     id="base"
     pagecolor="#ffffff"
     bordercolor="#666666"
     borderopacity="1.0"
     inkscape:pageopacity="0.0"
     inkscape:pageshadow="2"
     inkscape:zoom="0.98994949"
     inkscape:cx="206.63272"
     inkscape:cy="199.33522"
     inkscape:document-units="mm"
     inkscape:current-layer="layer1"
     showgrid="false"
     inkscape:lockguides="false"
     inkscape:window-width="1920"
     inkscape:window-height="971"
     inkscape:window-x="0"
     inkscape:window-y="31"
     inkscape:window-maximized="1" />
  <metadata
     id="metadata5">
    <rdf:RDF>
      <cc:Work
         rdf:about="">
        <dc:format>image/svg+xml</dc:format>
        <dc:type
           rdf:resource="http://purl.org/dc/dcmitype/StillImage" />
        <dc:title></dc:title>
      </cc:Work>
    </rdf:RDF>
  </metadata>
  <g
     inkscape:label="Layer 1"
     inkscape:groupmode="layer"
     id="layer1">
    <path
       style="fill:none;stroke:#000000;stroke-width:0.26458332px;stroke-linecap:butt;stroke-linejoin:miter;stroke-opacity:1"
       d="m 45.183848,76.20345 c 3.798056,-1.622767 7.77201,-3.088058 11.841978,-3.774203 5.206522,1.330336 -0.308502,6.460229 -3.481332,6.6946 -2.932133,1.433402 -6.112479,1.731112 -9.303195,1.287572 -4.457217,0.566319 -8.886415,2.648273 -12.038341,5.879891 -2.739572,3.467653 -5.140157,7.726517 -5.056168,12.236065 1.877245,5.628335 8.104858,7.768285 12.955343,10.162335 5.642002,2.78231 11.718172,5.24396 15.801352,10.27678 3.759959,3.81035 5.743179,8.97252 6.036523,14.26331 0.57921,6.76913 0.66863,13.67213 -0.629832,20.35968 -3.039325,4.5364 -8.760518,6.01459 -13.59649,7.86763 -9.624652,2.46476 -19.6382,0.36581 -29.367443,1.88759 -4.185755,0.25129 -8.5808642,0.89648 -12.5233475,-0.88278 -5.18429459,0.0134 -3.8429261,-6.10212 -0.3994674,-7.75822 3.0352692,-4.32874 5.9325349,1.40052 9.7147479,1.4701 7.446387,2.20995 15.18661,-0.47153 22.771428,-0.0402 4.512525,-0.1376 9.13011,0.38685 13.551173,0.0192 3.874534,-3.32085 2.536957,-9.05167 1.618004,-13.39894 -1.460514,-4.43955 -0.794454,-9.4112 -3.019118,-13.58985 -3.911251,-6.7567 -10.625304,-11.3834 -17.848574,-14.02658 -4.012742,-1.85841 -8.142448,-3.65896 -11.724955,-6.27085 -3.338075,-2.72812 -4.617292,-7.55936 -2.627637,-11.456945 2.683741,-7.28259 9.216666,-12.075906 15.823101,-15.58565 3.717082,-2.102939 7.598236,-3.896617 11.50225,-5.620605 z"
       id="path39"
       inkscape:connector-curvature="0" />
    <path
       style="fill:none;stroke:#000000;stroke-width:0.26458332px;stroke-linecap:butt;stroke-linejoin:miter;stroke-opacity:1"
       d="m 124.57353,101.65893 c 0,0 7.0001,-6.844356 10.15714,-4.824 4.30569,2.755439 -0.57858,10.23908 -0.17115,15.33471 0.14776,1.84794 -0.61435,4.47799 0.94494,5.48066 10.48196,6.74019 30.70558,-20.714528 36.15678,-9.50801 1.50192,3.08763 -5.0625,4.84942 -8.21061,6.22005 -5.5041,2.39638 -11.85237,1.93104 -17.74081,3.09897 -3.41818,0.67797 -8.35493,-0.68504 -10.20536,2.26785 -2.61262,4.16918 1.99576,9.64813 3.40179,14.3631 0.89976,3.01724 2.13934,5.92254 3.2128,8.88244 0.25139,0.69317 0.48808,1.3919 0.75595,2.07887 1.07933,2.76798 3.28827,5.25951 3.42834,8.22717 0.13697,2.90206 -0.57454,6.22309 -2.5799,8.32528 -1.05181,1.1026 -2.88137,2.11884 -4.298,1.55742 -3.59862,-1.42616 -3.76266,-6.78505 -5.24389,-10.36136 -3.09495,-7.47249 0.52122,-22.71273 -7.55953,-23.05655 -5.471,-0.23278 -4.02165,10.19898 -6.42559,15.11905 -2.27782,4.66196 -4.41723,9.47819 -7.55953,13.60715 -1.12053,1.47236 -2.43383,2.84289 -3.95843,3.89124 -2.98531,2.05276 -6.35789,3.69939 -9.888971,4.51018 -4.036743,0.9269 -8.280631,0.35518 -12.421941,0.29203 -2.333984,-0.0356 -4.726093,0.18048 -6.992559,-0.37798 -1.984381,-0.48896 -3.951068,-1.31069 -5.575149,-2.55134 -1.021155,-0.78007 -2.033393,-1.75145 -2.469571,-2.96017 -0.541777,-1.50136 -0.373276,-3.2396 0.01273,-4.78834 0.766685,-3.0761 2.992049,-5.59037 4.441219,-8.40997 0.06439,-0.12529 0.262447,-0.25779 0.188989,-0.37798 -1.765131,-2.88819 -9.124206,3.12295 -10.154097,-0.10143 -1.138883,-3.56562 5.534731,-5.41349 9.084651,-6.60039 1.891732,-0.63249 3.998169,-0.29822 5.983137,-0.10175 0.120406,0.0119 0.237461,0.10719 0.354679,0.0772 2.213078,-0.5663 3.321122,-3.15762 5.173221,-4.49483 1.076311,-0.7771 2.271809,-1.37471 3.425409,-2.03162 1.769966,-1.00789 5.362538,-2.92931 5.362538,-2.92931"
       id="path44"
       inkscape:connector-curvature="0"
       sodipodi:nodetypes="cssssssssssssssssssssssssssssssssc" />
    <path
       style="fill:none;stroke:#000000;stroke-width:0.26458332px;stroke-linecap:butt;stroke-linejoin:miter;stroke-opacity:1"
       d="m 95.202757,131.51727 v 0 c 0,0 0.584017,-0.42572 0.897691,-0.35433 0.541294,0.1232 0.987706,0.68557 1.131877,1.22166 0.185085,0.68822 -0.196456,1.42772 -0.470418,2.08564 -0.811182,1.94805 -2.026082,3.73881 -3.401788,5.33891 -0.967801,1.12566 -2.121613,2.10249 -3.354538,2.92932 -1.667123,1.11802 -3.943236,1.29765 -5.38616,2.69308 -1.210709,1.17086 -1.711888,2.90827 -2.409597,4.44122 -0.46655,1.02507 -1.011049,2.05223 -1.181177,3.16555 -0.14789,0.9678 -0.113161,1.99214 0.158112,2.93284 0.194375,0.67404 0.536539,1.33374 1.023065,1.83911 0.715578,0.7433 1.705887,1.18089 2.645833,1.60639 1.052753,0.47656 2.166433,0.85547 3.307291,1.03944 5.100388,0.82246 10.88791,2.57 15.497022,0.23623 0.77584,-0.39284 1.05307,-1.38738 1.5119,-2.12611 2.24552,-3.61537 4.26683,-7.3793 6.04762,-11.24479 3.71775,-8.06999 15.28568,-17.99231 9.6384,-24.85194 -2.84709,-3.4583 -8.84388,1.44858 -13.22917,2.36235 -3.45539,0.72001 -6.91577,1.45379 -10.299851,2.45685 -2.340205,0.69365 -4.60779,1.61284 -6.898066,2.45684 -1.301124,0.47949 -3.203374,2.68718 -3.887433,1.48099 -1.838473,-3.24174 5.466498,-5.21517 8.778661,-6.92352 1.436113,-0.74072 3.040503,-1.25149 4.652671,-1.36104 1.271088,-0.0864 2.527198,0.33415 3.779758,0.56697 1.14203,0.21228 2.24049,0.73017 3.40179,0.75595 4.54039,0.10081 8.89387,-1.96713 13.41815,-2.36235 0.12552,-0.011 0.27848,0.0773 0.37798,0 3.61993,-2.81182 2.75838,-8.78535 3.40179,-13.32366 0.32394,-2.28496 0.21936,-6.91994 0.21936,-6.91994 v 0 c 0,0 -0.19958,-0.71045 -0.007,-0.97032 0.66015,-0.890795 2.17946,-0.48693 3.18918,-0.944936 2.12085,-0.961997 3.748,-2.8567 5.90587,-3.732514 0.28334,-0.115001 0.64496,-0.361135 0.8977,-0.188989 0.28297,0.192738 0.17114,1.012759 0.17114,1.012759"
       id="path46"
       inkscape:connector-curvature="0"
       sodipodi:nodetypes="cssssssssssssssssssssssssssssssssssc" />
    <path
       style="fill:none;stroke:#000000;stroke-width:0.26458332px;stroke-linecap:butt;stroke-linejoin:miter;stroke-opacity:1"
       d="m 142.7805,144.01414 c 0,0 1.85687,-13.86086 4.72471,-20.12724 1.00418,-2.19418 2.55015,-4.14816 4.25223,-5.85863 0.82655,-0.83062 1.75783,-1.61715 2.83482,-2.07887 2.75711,-1.18202 6.00245,-2.50498 8.85837,-1.58706 0.8281,0.26616 1.46462,1.07639 1.81946,1.87055 0.37352,0.83596 0.21213,1.825 0.18898,2.74032 -0.0401,1.58569 -0.34577,3.154 -0.56696,4.7247 -0.30256,2.14851 -0.53695,4.31488 -1.03943,6.4256 -0.6275,2.6359 -1.66127,5.15838 -2.45685,7.74851 -0.71399,2.3245 -1.22631,4.71524 -2.07887,6.99256 -1.09218,2.91738 -2.83151,5.56905 -3.87425,8.50447 -0.25062,0.70551 -0.33476,1.46158 -0.56697,2.17336 -0.0451,0.13833 -0.15618,0.26065 -0.16009,0.4061 -0.005,0.17601 0.10762,0.33537 0.16704,0.50112 0.27777,0.77484 0.58453,1.53901 0.88533,2.3052 0.37709,0.96054 0.71124,1.9404 1.1526,2.87315 0.24728,0.5226 0.50172,1.04784 0.83522,1.5201 0.2192,0.3104 0.43147,0.65705 0.75792,0.85154 0.23629,0.14077 0.55553,0.30861 0.8032,0.18899 0.39504,-0.1908 0.38522,-0.78863 0.56033,-1.19087 1.42098,-3.26399 2.28777,-6.77774 3.97539,-9.91218 1.12666,-2.09256 2.46092,-4.10343 4.06324,-5.85863 1.02508,-1.12288 2.22999,-2.08779 3.49628,-2.92931 0.97382,-0.64716 2.00312,-1.25495 3.1183,-1.6064 0.56697,-0.17868 1.17366,-0.20621 1.76716,-0.23983 0.51157,-0.029 1.03331,-0.0617 1.5368,0.0334 0.69932,0.13202 1.37544,0.40222 2.00452,0.73499 0.81133,0.42917 1.51619,1.03715 2.23838,1.60362 0.88863,0.69702 1.69502,1.49392 2.57247,2.20497 0.69739,0.56514 1.39548,1.13289 2.13816,1.63703 0.90819,0.61648 1.85659,1.17544 2.82562,1.69103 0.81904,0.43579 1.68539,0.77647 2.51977,1.18212 1.62588,0.79046 3.24514,1.59554 4.84426,2.43883 0.32626,0.17205 0.63025,0.38827 0.96885,0.53454 0.93434,0.40362 1.91245,0.71717 2.90656,0.93544 1.17241,0.25742 2.37989,0.31957 3.57473,0.43432 1.10018,0.10566 2.49334,-0.51364 3.30746,0.23386 0.58126,0.53369 0.57155,1.57635 0.36749,2.33861 -0.21093,0.78794 -0.91224,1.37963 -1.5368,1.90429 -0.77773,0.65332 -1.727,1.08838 -2.66594,1.47579 -0.70853,0.29234 -1.45771,0.49133 -2.21172,0.62896 -1.04443,0.19063 -2.11239,0.29007 -3.17383,0.26727 -1.58258,-0.034 -3.1558,-0.30428 -4.71062,-0.60136 -1.41139,-0.26967 -2.82984,-0.56674 -4.17609,-1.06907 -2.61298,-0.97499 -4.9798,-2.51317 -7.48355,-3.74178 -0.89877,-0.44103 -1.85419,-0.77706 -2.7061,-1.30294 -2.22248,-1.37193 -6.20265,-4.78767 -6.20265,-4.78767 v 0 c 0,0 -0.18705,-0.25883 -0.31205,-0.22781 -0.0616,0.0153 -0.058,0.11306 -0.0835,0.17122 -1.09934,2.50766 -1.90244,5.13783 -2.99008,7.65059 -0.61735,1.42626 -1.31264,2.81787 -2.00452,4.2095 -0.30157,0.60656 -0.55879,1.24105 -0.93544,1.80407 -0.51851,0.77508 -1.0699,1.56319 -1.80407,2.13815 -1.6233,1.27128 -3.66331,1.89847 -5.54584,2.73951 -1.06103,0.47403 -2.09341,1.08426 -3.23569,1.29799 -1.48057,0.27703 -3.0407,0.23935 -4.51848,-0.0522 -1.10385,-0.21778 -2.31613,-0.47639 -3.13707,-1.24579 -1.74461,-1.63507 -2.11688,-4.28998 -3.0736,-6.48128 -0.048,-0.10992 -0.0246,-0.28409 -0.13363,-0.33409 -0.74906,-0.34354 -1.5181,0.72513 -2.33861,0.80181 -1.23994,0.11588 -3.69739,-0.53588 -3.69739,-0.53588"
       id="path48"
       inkscape:connector-curvature="0"
       sodipodi:nodetypes="csssssssssssssssssssssssssssssssssssssssssssssssssssssssssssssc" />
    <path
       style="fill:none;stroke:#000000;stroke-width:0.26458332px;stroke-linecap:butt;stroke-linejoin:miter;stroke-opacity:1"
       d="m 85.793518,139.57825 c 0,0 2.40978,-1.14922 3.608139,-1.73726 0.804777,-0.39491 1.62063,-1.63597 2.405425,-1.20271 0.403334,0.22267 0.362897,0.97472 0.135625,1.37548 -0.227633,0.4014 -0.823728,0.41889 -1.252045,0.59059 -1.016992,0.40768 -2.033692,0.88423 -3.118305,1.03943 -0.624047,0.0893 -1.889879,-0.0709 -1.889879,-0.0709"
       id="path50"
       inkscape:connector-curvature="0"
       sodipodi:nodetypes="csssssc" />
    <path
       style="fill:none;stroke:#000000;stroke-width:0.26458332px;stroke-linecap:butt;stroke-linejoin:miter;stroke-opacity:1"
       d="m 18.804315,211.01041 c 2.290771,-3.59267 7.568716,-8.37322 11.204784,-6.15198 1.508646,0.92162 0.512477,5.20704 -0.148981,5.30154 -0.661458,0.0945 10.645084,-6.55842 16.630954,-7.9375 4.051716,-0.93347 12.945684,-0.0945 12.473212,-0.0945 -0.472469,0 9.852195,5.05878 12.851191,9.44941 1.448841,2.12115 2.607888,4.94944 1.994059,7.44376 -0.53442,2.17164 -2.750182,3.60124 -4.545399,4.93496 -1.854541,1.37779 -5.807686,0.75364 -6.236605,3.02381 -0.732457,3.87672 6.172256,5.21396 8.031993,8.69345 1.969858,3.68552 2.752887,8.01454 2.929316,12.18973 0.07937,1.8782 0.340328,4.1205 -0.850447,5.57515 -3.547276,4.33335 -10.184854,5.98717 -15.780507,5.76414 -9.590653,-0.38227 -19.034552,-5.58648 -26.17485,-12.00075 -1.145288,-1.02884 -2.696587,-2.46593 -2.362351,-3.96875 0.462783,-2.08081 3.340425,-2.73252 5.291666,-3.59077 3.377806,-1.48571 7.093055,-2.26866 10.772323,-2.55134 1.984766,-0.15249 5.380215,-1.43392 5.953125,0.47247 0.987986,3.28757 -8.595155,2.93984 -8.116292,6.3391 0.856949,6.08315 11.101848,5.53271 17.093226,6.89007 1.477414,0.33471 3.564405,1.44595 4.535715,0.28348 2.537339,-3.03671 -0.826914,-8.11829 -2.834823,-11.52827 -2.0922,-3.55313 -5.26969,-6.81347 -9.071427,-8.40998 -1.221112,-0.5128 -2.658083,0.001 -3.96875,-0.18898 -1.829558,-0.26569 -4.021261,-0.076 -5.386163,-1.32292 -0.786882,-0.71889 -1.494564,-2.06005 -1.039434,-3.02381 1.076782,-2.28015 4.793242,-1.59848 7.087055,-2.64583 1.077046,-0.49178 1.937219,-1.61775 3.118303,-1.7009 1.610729,-0.1134 2.944773,1.42484 4.535715,1.7009 2.048497,0.35546 4.351216,0.78185 6.236607,-0.0945 0.870593,-0.40466 1.818864,-1.21595 1.889879,-2.17336 0.190672,-2.57058 -2.314731,-4.71798 -4.157736,-6.52009 -3.213478,-3.14217 -7.129836,-6.06876 -11.528274,-6.99256 -4.477339,-0.94037 -9.213171,0.52108 -13.607143,1.79539 -2.233289,0.64768 -5.005901,1.01857 -6.3311,2.92931 -6.678676,9.62965 -2.456845,34.20685 -2.645834,35.0573 -0.188987,0.85044 -0.61581,2.25141 -1.417412,3.0238 -2.439223,2.35034 -6.594247,5.93157 -9.35491,3.96875 -11.9634512,-8.50597 -4.962627,-31.56262 2.929315,-43.93973 z"
       id="path54"
       inkscape:connector-curvature="0"
       sodipodi:nodetypes="sssssssssssssssssssssssssssssssssssssss" />
    <path
       style="fill:none;stroke:#000000;stroke-width:0.26458332px;stroke-linecap:butt;stroke-linejoin:miter;stroke-opacity:1"
       d="m 77.284038,233.72096 c 0,0 4.295004,-4.85858 6.260996,-3.49834 1.630481,1.12811 -0.757289,3.90335 -0.88452,5.88196 -0.194082,3.01823 -0.602505,6.15237 0.188989,9.07143 0.490784,1.81003 1.161452,3.90164 2.740327,4.91369 1.702319,1.09117 4.399114,1.64336 6.04762,0.47247 3.930329,-2.7916 2.049619,-9.45023 3.685268,-13.98512 0.439291,-1.21795 0.84872,-2.49491 1.635667,-3.52306 1.092568,-1.42744 2.504835,-2.69807 4.128465,-3.4695 1.21639,-0.57794 2.63055,-0.60491 3.96875,-0.75595 2.56826,-0.28988 5.37085,-1.29675 7.74851,-0.28348 0.6747,0.28753 1.32069,0.92264 1.46484,1.64175 0.33161,1.65431 -0.95412,3.24855 -1.65383,4.78384 -0.49741,1.0914 -1.4108,1.98222 -1.79538,3.1183 -0.62134,1.83552 -1.18948,3.87542 -0.75596,5.76414 0.19533,0.85098 0.7393,1.66645 1.43907,2.18861 1.73425,1.29406 4.49815,3.19177 6.21495,1.87464 3.22534,-2.47448 -1.73959,-8.35936 -0.37797,-12.18974 0.83765,-2.35641 2.93153,-4.14471 4.91369,-5.66964 1.55924,-1.19957 3.34104,-2.43367 5.30189,-2.59262 0.72619,-0.0589 1.36404,0.62101 2.09253,0.63136 1.02535,0.0146 1.95453,-0.95223 2.9693,-0.80457 0.96459,0.14035 1.94077,0.73042 2.48747,1.53741 1.02236,1.50911 0.56067,3.60432 0.94494,5.38616 0.29203,1.35416 0.56523,2.7215 1.03276,4.02551 0.22765,0.63496 0.43175,1.30961 0.85712,1.83312 0.6952,0.8556 1.6095,1.60838 2.64583,1.98437 0.56336,0.20439 1.29788,0.42861 1.79539,0.0945 3.01845,-2.02707 0.85129,-7.90917 3.59077,-10.29985 1.41798,-1.23743 4.01023,-2.22471 5.5338,-1.11989 1.49399,1.08337 -1.19788,5.36123 0.64243,5.49896 1.66342,0.12449 0.24907,-3.54475 1.31404,-4.82861 1.52176,-1.83454 4.39901,-1.87914 6.43393,-3.12026 0.83516,-0.50937 2.34725,-1.76152 2.34725,-1.76152 v 0 0 c 0,0 0.65908,1.36507 1.30444,1.45706 1.31728,0.18777 2.07656,-1.88385 3.38751,-2.11166 1.37016,-0.2381 2.70043,0.68926 4.07753,0.88324 0.93778,0.1321 1.89047,0.26025 2.83482,0.18899 4.66385,-0.35195 9.27858,-1.50331 13.70163,-3.02381 4.29017,-1.47482 8.06918,-4.18113 12.28423,-5.85863 2.36774,-0.94231 7.27478,-2.35045 7.27478,-2.35045 v 0 0 c 0,0 0.0755,1.9292 -0.47121,2.63393 -3.90507,5.03391 -11.50558,5.48803 -17.3869,7.9375 -3.04588,1.26856 -6.07771,2.62625 -9.26042,3.49628 -2.65241,0.72507 -5.39062,1.14174 -8.12649,1.41741 -2.22598,0.22429 -4.58839,-0.5237 -6.70908,0.18899 -0.25684,0.0863 -0.4918,0.2612 -0.66145,0.47247 -0.64456,0.80267 -0.90096,1.85944 -1.2101,2.84137 -0.19265,0.61191 -8.5e-4,1.37818 -0.3963,1.88333 -1.18943,1.51937 -4.03228,0.99069 -5.21291,2.51691 -0.47871,0.61884 -0.0219,1.65188 -0.45674,2.30229 -1.38864,2.07704 -3.74249,4.00987 -6.2366,4.15773 -1.4195,0.0842 -2.77044,-0.95399 -3.80425,-1.93037 -0.2465,-0.23281 -0.17749,-0.81993 -0.51131,-0.87933 -1.24588,-0.22169 -1.93991,1.62566 -2.92326,2.42213 -0.39734,0.32183 -0.76862,0.68193 -1.20271,0.95215 -0.42923,0.26719 -0.87564,0.54434 -1.36976,0.65147 -1.60553,0.34809 -3.3371,0.32714 -4.92778,-0.0835 -1.17215,-0.30259 -2.0108,-1.88829 -3.20724,-1.70384 -0.87946,0.13558 -1.19597,1.32435 -1.87088,1.9043 -0.37508,0.3223 -0.75742,0.65353 -1.20272,0.86862 -1.20553,0.5823 -2.53061,1.18324 -3.86606,1.08857 -0.95064,-0.0674 -1.70681,-1.44355 -2.61522,-1.15538 -0.37137,0.11781 -0.40743,0.66435 -0.60136,1.00226 -0.39196,0.68297 -0.60366,1.49099 -1.1359,2.07133 -0.81418,0.88775 -1.88102,1.576 -3.00678,2.00453 -1.19811,0.45607 -2.53228,0.6549 -3.80859,0.53453 -3.65334,-0.34456 -7.7916,-0.98424 -10.42351,-3.54132 -0.50764,-0.4932 -0.67144,-1.28556 -0.74073,-1.98993 -0.12417,-1.26227 0.29537,-2.5269 0.6071,-3.75636 0.94524,-3.72802 6.16051,-7.84819 3.80859,-10.89123 -1.06613,-1.37942 -3.4721,0.32935 -5.2128,0.42621 -0.46686,0.026 -1.04303,-0.25797 -1.40212,0.0415 -1.31174,1.09393 -0.64267,3.35736 -1.06908,5.0113 -0.70888,2.74954 -1.985671,5.35427 -2.472243,8.15172 -0.07643,0.43941 0.08048,0.91537 -0.06682,1.33635 -0.57975,1.65693 -1.724698,3.15292 -3.073601,4.27631 -1.735401,1.44527 -3.921847,2.40261 -6.126236,2.89362 -2.267758,0.50512 -4.725348,0.57913 -6.969969,-0.0205 -0.693932,-0.18538 -1.359691,-0.56452 -1.870888,-1.06908 -1.655631,-1.63414 -3.000646,-3.75099 -3.54132,-6.01356 -1.120601,-4.6894 0.91177,-14.43553 0.91177,-14.43553"
       id="path56"
       inkscape:connector-curvature="0"
       sodipodi:nodetypes="cssssssssssssssssssssssssssssssssssssssssssssssssssssssssssssssssssssssssssssssssssssc" />
    <path
       style="fill:none;stroke:#000000;stroke-width:0.26458332px;stroke-linecap:butt;stroke-linejoin:miter;stroke-opacity:1"
       d="m 122.88255,237.48679 c -0.30431,0.5873 -0.18235,1.34855 0,1.98437 0.16384,0.57127 0.38003,1.32731 0.94494,1.51191 1.61232,0.52688 3.36045,-0.88193 4.7247,-1.88989 1.0089,-0.74541 2.71527,-1.72558 2.36236,-2.92931 -0.22418,-0.76466 -1.47198,-0.71681 -2.26786,-0.75595 -1.41954,-0.0698 -2.85947,0.36662 -4.15774,0.94494 -0.59872,0.2667 -1.30486,0.55198 -1.6064,1.13393 z"
       id="path60"
       inkscape:connector-curvature="0"
       sodipodi:nodetypes="ssssssss" />
  </g>
</svg>
