<?xml version="1.0" encoding="UTF-8" standalone="no"?>
<!-- Created with Inkscape (http://www.inkscape.org/) -->

<svg
   xmlns:dc="http://purl.org/dc/elements/1.1/"
   xmlns:cc="http://creativecommons.org/ns#"
   xmlns:rdf="http://www.w3.org/1999/02/22-rdf-syntax-ns#"
   xmlns:svg="http://www.w3.org/2000/svg"
   xmlns="http://www.w3.org/2000/svg"
   xmlns:sodipodi="http://sodipodi.sourceforge.net/DTD/sodipodi-0.dtd"
   xmlns:inkscape="http://www.inkscape.org/namespaces/inkscape"
   width="210mm"
   height="297mm"
   viewBox="0 0 210 297"
   version="1.1"
   id="svg8"
   inkscape:version="0.92.1 r15371"
   sodipodi:docname="drawing-3.svg">
  <defs
     id="defs2" />
  <sodipodi:namedview
     id="base"
     pagecolor="#ffffff"
     bordercolor="#666666"
     borderopacity="1.0"
     inkscape:pageopacity="0.0"
     inkscape:pageshadow="2"
     inkscape:zoom="0.33941126"
     inkscape:cx="447.68788"
     inkscape:cy="550.39242"
     inkscape:document-units="mm"
     inkscape:current-layer="layer1"
     showgrid="false"
     inkscape:window-width="738"
     inkscape:window-height="419"
     inkscape:window-x="717"
     inkscape:window-y="305"
     inkscape:window-maximized="0" />
  <metadata
     id="metadata5">
    <rdf:RDF>
      <cc:Work
         rdf:about="">
        <dc:format>image/svg+xml</dc:format>
        <dc:type
           rdf:resource="http://purl.org/dc/dcmitype/StillImage" />
        <dc:title></dc:title>
      </cc:Work>
    </rdf:RDF>
  </metadata>
  <g
     inkscape:label="Layer 1"
     inkscape:groupmode="layer"
     id="layer1">
    <path
       style="fill:none;stroke:#000000;stroke-width:0.26458332px;stroke-linecap:butt;stroke-linejoin:miter;stroke-opacity:1"
       d="m 19.443857,136.23738 4.810853,-1.60362 10.958049,0.26727 2.672697,0.53454 1.870887,1.06908 1.069078,4.81085 -0.53454,7.21628 v 2.93996 h -8.018087 l -0.801807,-7.21628 -2.138156,-1.33634 -1.336349,5.07812 0.267271,12.56167 v 12.56167 l 1.336347,1.87088 2.405425,-3.20723 -0.801809,-5.61266 -1.069078,-0.53454 v -6.41447 -1.33635 h 1.870887 2.939965 l 5.61266,0.26727 -0.534538,23.51972 -4.009044,0.80181 -1.069078,-4.27631 -8.285355,4.27631 -6.1472,-0.80181 -2.405425,-2.93996 -0.267269,-40.09044 z"
       id="path21"
       inkscape:connector-curvature="0"
       inkscape:export-xdpi="96"
       inkscape:export-ydpi="96" />
    <path
       style="fill:none;stroke:#000000;stroke-width:0.26458332px;stroke-linecap:butt;stroke-linejoin:miter;stroke-opacity:1"
       d="m 45.369002,136.23738 7.483546,-1.06908 8.819894,0.53454 3.207234,1.60362 0.801809,42.22858 -3.474503,2.93997 -6.681737,0.26727 -8.285356,-0.80181 -2.138156,-0.66817 -1.603618,-2.00452 0.53454,-42.49586 z"
       id="path23"
       inkscape:connector-curvature="0"
       inkscape:export-xdpi="96"
       inkscape:export-ydpi="96" />
    <path
       style="fill:none;stroke:#000000;stroke-width:0.26458332px;stroke-linecap:butt;stroke-linejoin:miter;stroke-opacity:1"
       d="m 53.787991,142.91912 h 1.469982 l 0.534541,16.70435 -0.133636,13.76437 -1.202711,0.53455 -0.668176,-1.20272 -0.534538,-5.74629 -0.53454,-19.64432 0.133635,-4.14268 0.400905,-0.4009 z"
       id="path25"
       inkscape:connector-curvature="0"
       inkscape:export-xdpi="96"
       inkscape:export-ydpi="96" />
    <path
       style="fill:none;stroke:#000000;stroke-width:0.26458332px;stroke-linecap:butt;stroke-linejoin:miter;stroke-opacity:1"
       d="m 77.842248,144.65637 2.004523,-0.93545 0.801809,6.01357 -0.53454,23.38609 -0.668173,2.27179 -2.004523,-1.33635 z"
       id="path27"
       inkscape:connector-curvature="0"
       inkscape:export-xdpi="96"
       inkscape:export-ydpi="96" />
    <path
       style="fill:none;stroke:#000000;stroke-width:0.26458332px;stroke-linecap:butt;stroke-linejoin:miter;stroke-opacity:1"
       d="m 69.022355,135.1683 14.165283,-0.26727 c 0,0 2.004523,0.66817 2.806333,0.93544 0.801806,0.26727 3.875407,2.53906 3.875407,2.53906 l 0.668174,9.62171 -0.133636,30.20146 -2.271789,2.53906 -6.280836,1.73725 H 69.556893 l -2.27179,-0.66817 0.668174,-46.23764 z"
       id="path29"
       inkscape:connector-curvature="0"
       inkscape:export-xdpi="96"
       inkscape:export-ydpi="96" />
    <path
       style="fill:none;stroke:#000000;stroke-width:0.26458332px;stroke-linecap:butt;stroke-linejoin:miter;stroke-opacity:1"
       d="m 93.477515,135.1683 17.639785,-0.13364 0.80181,7.61719 -1.20271,6.1472 -7.21628,24.32153 -0.13364,1.06907 0.80181,0.40091 6.28083,-0.80181 0.93545,-0.26727 0.13363,7.21628 -0.53453,1.60361 c 0,0 -2.2718,-0.13363 -3.07361,0.13364 -0.8018,0.26727 -13.764369,0.13363 -13.764369,0.13363 l -1.870888,-0.13363 0.133636,-10.55715 4.009042,-10.95805 4.142669,-17.37252 -0.53454,-0.80181 -4.944479,-0.26727 -2.004516,-0.80181 z"
       id="path31"
       inkscape:connector-curvature="0"
       inkscape:export-xdpi="96"
       inkscape:export-ydpi="96" />
    <path
       style="fill:none;stroke:#000000;stroke-width:0.26458332px;stroke-linecap:butt;stroke-linejoin:miter;stroke-opacity:1"
       d="m 114.05726,135.43557 7.75082,-0.80181 2.00452,0.26727 0.53454,47.30671 -10.15624,0.26727 z"
       id="path33"
       inkscape:connector-curvature="0"
       inkscape:export-xdpi="96"
       inkscape:export-ydpi="96" />
    <path
       style="fill:none;stroke:#000000;stroke-width:0.26458332px;stroke-linecap:butt;stroke-linejoin:miter;stroke-opacity:1"
       d="m 126.4853,135.03466 8.81989,-0.8018 1.06908,39.55589 5.21176,0.13364 0.8018,7.21627 -13.63074,1.46998 -1.49688,-0.66015 z"
       id="path35"
       inkscape:connector-curvature="0"
       inkscape:export-xdpi="96"
       inkscape:export-ydpi="96" />
    <path
       style="fill:none;stroke:#000000;stroke-width:0.26458332px;stroke-linecap:butt;stroke-linejoin:miter;stroke-opacity:1"
       d="m 144.9306,134.79595 9.4494,0.94495 -0.37797,38.17559 5.85863,0.94494 0.37797,6.23661 c 0,0 -4.15774,0.75595 -4.91369,0.75595 -0.75595,0 -9.4626,-0.44806 -9.4626,-0.44806 l -1.87089,-11.75986 z"
       id="path37"
       inkscape:connector-curvature="0"
       inkscape:export-xdpi="96"
       inkscape:export-ydpi="96" />
    <path
       style="fill:none;stroke:#000000;stroke-width:0.26458332px;stroke-linecap:butt;stroke-linejoin:miter;stroke-opacity:1"
       d="m 168.98115,134.9233 10.02261,-0.26727 8.01809,45.30219 -2.53907,0.66818 -6.68173,-0.26727 -1.60362,-8.8199 -3.4745,0.26727 -0.53454,7.75082 -2.53907,2.13815 -5.21175,-0.80181 -1.46998,-1.87088 z"
       id="path39"
       inkscape:connector-curvature="0"
       inkscape:export-xdpi="96"
       inkscape:export-ydpi="96" />
    <path
       style="fill:none;stroke:#000000;stroke-width:0.26458332px;stroke-linecap:butt;stroke-linejoin:miter;stroke-opacity:1"
       d="m 174.32654,151.33811 -1.33635,12.6953 2.53907,0.13364 z"
       id="path41"
       inkscape:connector-curvature="0"
       inkscape:export-xdpi="96"
       inkscape:export-ydpi="96" />
    <path
       style="fill:none;stroke:#000000;stroke-width:0.26458332px;stroke-linecap:butt;stroke-linejoin:miter;stroke-opacity:1"
       d="m 43.100892,7.32176 v 14.3316 l 18.190104,-0.55122 1.653646,8.81944 -2.20486,4.96094 -14.331598,-1.10243 h -2.20486 v 11.57552 h 29.21441 L 75.622594,17.79485 68.456796,8.97541 64.598288,6.77054 Z"
       id="path54"
       inkscape:connector-curvature="0" />
    <path
       style="fill:none;stroke:#000000;stroke-width:0.26458332px;stroke-linecap:butt;stroke-linejoin:miter;stroke-opacity:1"
       d="m 76.522603,4.79088 6.820943,1.36419 -1.169305,8.38001 -6.82094,-0.77953 z"
       id="path56"
       inkscape:connector-curvature="0" />
    <path
       style="fill:none;stroke:#000000;stroke-width:0.26458332px;stroke-linecap:butt;stroke-linejoin:miter;stroke-opacity:1"
       d="m 87.473723,7.18395 4.134115,0.27561 -0.68902,7.3036 -4.271918,0.41342 -2.475097,-0.98255 1.218025,-7.74663 z"
       id="path58"
       inkscape:connector-curvature="0" />
    <path
       style="fill:none;stroke:#000000;stroke-width:0.26458332px;stroke-linecap:butt;stroke-linejoin:miter;stroke-opacity:1"
       d="m 100.15167,5.39251 15.15842,4.96093 -3.30729,7.71702 -3.30729,-0.27561 -9.37066,-3.5829 -4.960938,-0.96463 z"
       id="path60"
       inkscape:connector-curvature="0" />
    <path
       style="fill:none;stroke:#000000;stroke-width:0.26458332px;stroke-linecap:butt;stroke-linejoin:miter;stroke-opacity:1"
       d="m 97.11999,19.4485 13.31244,0.34845 -0.58466,8.67234 -12.959785,0.38977 z"
       id="path62"
       inkscape:connector-curvature="0" />
    <path
       style="fill:none;stroke:#000000;stroke-width:0.26458332px;stroke-linecap:butt;stroke-linejoin:miter;stroke-opacity:1"
       d="m 117.74058,5.7653 5.94396,-0.29232 0.0974,7.79536 -2.04628,0.38977 -3.89768,-0.0974 z"
       id="path64"
       inkscape:connector-curvature="0" />
    <path
       style="fill:none;stroke:#000000;stroke-width:0.26458332px;stroke-linecap:butt;stroke-linejoin:miter;stroke-opacity:1"
       d="m 125.73082,5.96019 5.16443,0.48721 0.0974,6.43117 -1.26675,0.38977 -4.72593,-0.53594 z"
       id="path66"
       inkscape:connector-curvature="0" />
    <path
       style="fill:none;stroke:#000000;stroke-width:0.26458332px;stroke-linecap:butt;stroke-linejoin:miter;stroke-opacity:1"
       d="m 124.65896,20.18672 6.23629,7.21071 -0.38977,2.14372 -23.1912,15.98049 -6.82094,-8.57489 z"
       id="path68"
       inkscape:connector-curvature="0" />
    <path
       style="fill:none;stroke:#000000;stroke-width:0.26458332px;stroke-linecap:butt;stroke-linejoin:miter;stroke-opacity:1"
       d="m 141.21721,4.84129 27.28516,0.27561 0.41341,8.26823 -5.37435,0.96462 -21.91081,0.55122 z"
       id="path70"
       inkscape:connector-curvature="0" />
    <path
       style="fill:none;stroke:#000000;stroke-width:0.26458332px;stroke-linecap:butt;stroke-linejoin:miter;stroke-opacity:1"
       d="m 139.28796,16.69242 14.81391,0.0689 10.12858,-1.17133 1.03353,0.55121 5.99446,9.92188 0.55122,1.65364 -11.02431,18.19011 -3.30729,-0.27561 -6.89019,-4.96094 -1.10243,-1.65364 7.99262,-10.47309 -2.75608,-0.27561 -3.8585,0.82682 -8.54384,-0.27561 h -2.75607 z"
       id="path72"
       inkscape:connector-curvature="0" />
  </g>
</svg>
