<?xml version="1.0" encoding="UTF-8" standalone="no"?>
<!-- Created with Inkscape (http://www.inkscape.org/) -->

<svg
   xmlns:dc="http://purl.org/dc/elements/1.1/"
   xmlns:cc="http://creativecommons.org/ns#"
   xmlns:rdf="http://www.w3.org/1999/02/22-rdf-syntax-ns#"
   xmlns:svg="http://www.w3.org/2000/svg"
   xmlns="http://www.w3.org/2000/svg"
   xmlns:sodipodi="http://sodipodi.sourceforge.net/DTD/sodipodi-0.dtd"
   xmlns:inkscape="http://www.inkscape.org/namespaces/inkscape"
   width="210mm"
   height="297mm"
   viewBox="0 0 210 297"
   version="1.1"
   id="svg8"
   inkscape:version="0.92.1 r15371"
   sodipodi:docname="image-matrix.svg">
  <defs
     id="defs2" />
  <sodipodi:namedview
     id="base"
     pagecolor="#ffffff"
     bordercolor="#666666"
     borderopacity="1.0"
     inkscape:pageopacity="0.0"
     inkscape:pageshadow="2"
     inkscape:zoom="1.4"
     inkscape:cx="235.75277"
     inkscape:cy="657.12017"
     inkscape:document-units="mm"
     inkscape:current-layer="layer1"
     showgrid="false"
     showguides="true"
     inkscape:guide-bbox="true"
     inkscape:window-width="1920"
     inkscape:window-height="971"
     inkscape:window-x="0"
     inkscape:window-y="31"
     inkscape:window-maximized="1" />
  <metadata
     id="metadata5">
    <rdf:RDF>
      <cc:Work
         rdf:about="">
        <dc:format>image/svg+xml</dc:format>
        <dc:type
           rdf:resource="http://purl.org/dc/dcmitype/StillImage" />
        <dc:title></dc:title>
      </cc:Work>
    </rdf:RDF>
  </metadata>
  <g
     inkscape:label="Layer 1"
     inkscape:groupmode="layer"
     id="layer1">
    <path
       style="fill:none;stroke:#000000;stroke-width:0.26458332px;stroke-linecap:butt;stroke-linejoin:miter;stroke-opacity:1"
       d="m 64.506448,211.48996 4.181819,-1.61983 8.552627,-3.20723 12.828936,-6.68174 2.672694,-1.60362 3.207234,-2.40542 5.879932,-4.27632 3.20723,-3.74177 1.60362,1.06908 2.6727,2.67269 4.54358,3.47451 9.08716,5.61266 3.4745,2.13815 5.61267,2.6727 9.08716,4.54358 5.34539,1.33635 -0.26727,5.34539 -4.54358,25.65787 -1.06908,5.07812 -1.33635,5.61266 -1.87088,5.3454 -4.27632,7.7508 -5.61266,6.14722 -9.27551,9.09177 -2.74033,2.26785 -9.73288,7.08705 -2.07887,-1.03944 -1.70089,-1.32292 -2.078873,-1.79538 -4.630208,-3.21278 -11.90625,-11.3393 -6.236607,-7.65402 -2.645834,-5.48065 -3.118302,-7.9375 -2.078871,-11.52827 -0.566962,-4.06325 -0.566966,-2.26785 -1.417409,-8.78795 -2.20635,-12.93861"
       id="path21"
       inkscape:connector-curvature="0"
       sodipodi:nodetypes="ccccccccccccccccccccccccccccccccccccccc"
       inkscape:export-xdpi="96"
       inkscape:export-ydpi="96" />
    <path
       style="fill:none;stroke:#000000;stroke-width:0.26458332px;stroke-linecap:butt;stroke-linejoin:miter;stroke-opacity:1"
       d="m 97.61235,201.56101 -6.331101,4.44122 -7.370535,4.06324 -8.787947,4.25223 -3.874257,1.6064 1.228423,13.22917 5.669643,2.36235 0.377975,0.18899 1.417413,9.44941 -2.173364,1.5119 -1.889882,1.41741 v 2.74033 l 0.661458,3.59077 0.850448,3.49628 1.984375,3.68527 1.889882,3.30729 0.377975,0.47247 0.850445,-1.22842 4.441222,-4.25223 2.267858,-2.55134 1.606399,2.07887 3.496278,4.53571 0.944941,0.94494 -4.630208,-1.79539 -1.039435,-0.0945 -1.606399,4.34673 0.472469,4.4412 1.606399,2.64584 8.409972,7.9375 3.874253,-5.38615 0.75596,0.0945 2.07886,2.36236 3.40179,-2.45684 3.49628,4.72469 0.37798,0.0945 1.5119,-0.75597 7.18155,-6.42559 1.70089,-4.63021 -0.0945,-2.92931 -1.41741,-4.25223 -5.38616,1.98438 5.57515,-7.65402 0.66145,0.18899 7.18155,7.843 0.94494,-0.94494 3.11831,-6.89806 1.79538,-8.59896 -4.15774,-3.77976 1.22842,-9.16593 6.14212,-2.92931 1.13393,-8.22098 v -5.19718 l -9.07143,-3.49628 -8.032,-4.15773 -9.4494,-6.3311 -0.37798,0.0945 -4.15773,8.31548 -5.95313,0.0945 -4.91368,-8.40999"
       id="path23"
       inkscape:connector-curvature="0"
       sodipodi:nodetypes="ccccccccccccccccccccccccccccccccccccccccccccccccccccccccccc"
       inkscape:export-xdpi="96"
       inkscape:export-ydpi="96" />
    <path
       style="fill:none;stroke:#000000;stroke-width:0.26458332px;stroke-linecap:butt;stroke-linejoin:miter;stroke-opacity:1"
       d="m 82.020832,214.3177 c 0.401095,0.58322 -0.879929,1.1347 -1.133927,1.79539 -0.332617,0.86519 -0.408835,1.8156 -0.472472,2.74033 -0.06491,0.94323 -0.08823,1.90718 0.09449,2.83482 0.227271,1.15385 0.76004,2.22857 1.228424,3.30729 0.112207,0.25842 0.259919,1.01176 0.377976,0.75596 0.466438,-1.01065 0.576507,-1.81392 1.228423,-2.45685 0.722191,-0.71223 1.751552,-1.09674 2.740327,-1.32292 0.890443,-0.20369 1.841076,-0.16038 2.740329,0 0.627878,0.11198 1.174662,0.51492 1.795386,0.66146 0.277597,0.0655 0.586003,0.20138 0.850447,0.0945 1.327368,-0.5365 1.862128,-2.17659 2.740327,-3.3073 0.525583,-0.67671 1.474052,-1.22286 1.511903,-2.07886 0.01623,-0.36697 -0.448362,-0.59729 -0.566962,-0.94494 -0.17408,-0.51028 -0.312422,-1.08156 -0.18899,-1.6064 0.224004,-0.95248 0.922593,-1.75698 1.606399,-2.45685 0.427405,-0.43744 0.927848,-0.85803 1.511906,-1.03943 0.511369,-0.15883 1.072972,-0.0467 1.606397,0 0.541665,0.0474 1.112205,0.0567 1.606405,0.28348 0.40688,0.1867 0.84772,0.4459 1.03943,0.85045 0.054,0.11385 0.0891,0.28888 0,0.37797 -0.48999,0.48999 -1.38929,-0.0683 -2.07887,0 -0.479482,0.0475 -1.005096,0.0342 -1.41741,0.28348 -0.728253,0.44034 -1.483468,1.14227 -1.606399,1.98438 -0.167296,1.14602 1.365203,2.0554 1.322916,3.21279 -0.01543,0.42231 -0.239851,0.86639 -0.566965,1.13393 -3.486215,2.85133 -3.99535,5.79842 -6.425594,7.9375 -0.451713,0.39759 -0.823722,-0.89237 -1.322916,-1.22842 -0.432513,-0.29116 -0.908401,-0.54854 -1.41741,-0.66146 -0.645757,-0.14326 -1.337907,-0.14003 -1.984372,0 -0.743932,0.16114 -1.519417,0.42879 -2.07887,0.94495 -0.476694,0.43979 -0.782249,1.07304 -0.94494,1.70089 -0.189625,0.73178 -0.01574,1.51206 -10e-7,2.26785 0.01575,0.75645 0.413488,1.85277 0.09449,2.26786 -0.318998,0.41509 -0.690955,-0.0323 -0.897695,-0.23623 -1.944591,-1.91823 -2.98467,-2.43123 -3.968748,-4.016 -0.830182,-1.33693 -1.662075,-3.10988 -1.842636,-4.34673 -0.271948,-1.86286 0.558747,-4.23655 1.322917,-6.14211 0.527571,-1.31557 1.3522,-2.64606 2.551339,-3.40179 0.271753,-0.17126 0.762921,-0.45366 0.944941,-0.18899 z"
       id="path25"
       inkscape:connector-curvature="0"
       sodipodi:nodetypes="csssssasssssssssssssssssssssssssszssssssc"
       inkscape:export-xdpi="96"
       inkscape:export-ydpi="96" />
    <path
       style="fill:none;stroke:#000000;stroke-width:0.26458332px;stroke-linecap:butt;stroke-linejoin:miter;stroke-opacity:1"
       d="m 105.83334,212.33333 13.22916,20.88319 -26.741817,0.0945 v 0 0 l 1.322918,-2.74034 11.622769,-18.14285 z"
       id="path27"
       inkscape:connector-curvature="0"
       sodipodi:nodetypes="ccccc"
       inkscape:export-xdpi="96"
       inkscape:export-ydpi="96" />
    <path
       style="fill:none;stroke:#000000;stroke-width:0.26458332px;stroke-linecap:butt;stroke-linejoin:miter;stroke-opacity:1"
       d="m 99.02976,222.91666 h 13.22917 l -6.61459,10.48884 z"
       id="path29"
       inkscape:connector-curvature="0"
       inkscape:export-xdpi="96"
       inkscape:export-ydpi="96" />
    <path
       style="fill:none;stroke:#000000;stroke-width:0.26458332px;stroke-linecap:butt;stroke-linejoin:miter;stroke-opacity:1"
       d="m 108.66815,212.8058 c 0.29678,0.66088 1.46088,-0.13112 2.17337,0 0.69614,0.12811 1.47047,0.2692 1.98437,0.75595 0.45045,0.42666 0.62715,1.09397 0.75595,1.7009 0.0785,0.36974 0.0981,0.76889 0,1.13393 -0.17938,0.66785 -0.92674,1.1131 -1.03943,1.79538 -0.0262,0.15846 0.0274,0.32653 0.0945,0.47247 0.3841,0.83591 1.01381,1.56165 1.7009,2.17336 2.1329,1.89891 3.41723,5.59881 5.10267,6.3311 0.34787,0.15114 0.55498,-0.51813 0.85045,-0.75595 0.33374,-0.26863 0.6485,-0.5807 1.03944,-0.75595 0.67651,-0.30327 1.43202,-0.47977 2.17336,-0.47247 0.67992,0.007 1.39081,0.14079 1.98438,0.47247 0.50551,0.28248 0.93369,0.72995 1.22842,1.22842 0.51749,0.87522 0.75446,1.9171 0.85044,2.92932 0.0956,1.00784 -1.14719,2.49572 -0.28348,3.02381 0.35038,0.21423 0.71637,-0.4079 1.03944,-0.66146 0.82366,-0.64644 1.58567,-1.37905 2.26785,-2.17336 0.92804,-1.08057 1.90167,-2.18454 2.45685,-3.49628 0.26245,-0.6201 0.27317,-1.31923 0.37798,-1.98438 0.11858,-0.75255 0.33624,-1.50785 0.28347,-2.26786 -0.0587,-0.84607 -0.39326,-1.65225 -0.66145,-2.45684 -0.48275,-1.44826 -0.76141,-3.04896 -1.7009,-4.25223 -0.4304,-0.55125 -1.05237,-0.96662 -1.70089,-1.22843 -0.20653,-0.0834 -0.52757,-0.27249 -0.66146,-0.0945 -0.41527,0.55205 0.64233,1.23117 0.85045,1.88988 0.45411,1.43727 1.0367,2.94547 0.85045,4.44122 -0.19941,1.60143 -0.53243,3.4683 -1.51191,5.19718 -0.55288,0.97588 -1.18501,-1.96832 -2.07887,-2.64584 -0.78782,-0.59715 -1.76755,-0.95799 -2.74032,-1.13393 -0.89939,-0.16267 -1.88182,-0.21909 -2.74033,0.0945 -0.52676,0.19241 -0.78255,0.88941 -1.32292,1.03943 -0.24469,0.0679 -0.62916,0.12553 -0.75595,-0.0945 -1.09305,-1.89681 -3.34941,-3.63695 -3.96875,-5.66964 -0.10745,-0.35267 0.31401,-0.67635 0.37798,-1.03944 0.0929,-0.52735 0.12751,-1.08634 0,-1.6064 -0.19459,-0.79362 -0.56729,-1.58462 -1.13393,-2.17336 -0.5283,-0.54891 -1.23445,-0.99979 -1.98438,-1.13393 -1.13161,-0.20241 -2.39551,0.0111 -3.40178,0.56696 -0.33201,0.18339 -0.91135,0.50446 -0.75597,0.85047 z"
       id="path31"
       inkscape:connector-curvature="0"
       sodipodi:nodetypes="aaaaaaassaaaaaaaaaaaaaaaaassaaaassaaaaaa"
       inkscape:export-xdpi="96"
       inkscape:export-ydpi="96" />
    <path
       style="fill:none;stroke:#000000;stroke-width:0.26458332px;stroke-linecap:butt;stroke-linejoin:miter;stroke-opacity:1"
       d="m 83.15476,236.14583 2.456846,4.34673 3.590775,0.47247 6.803569,0.75595 c 0,0 0.464685,0.32004 0.566965,0.56696 0.120538,0.291 0,0.94494 0,0.94494 l -9.449405,0.85045 h -0.472469 l 1.795385,3.2128 2.362354,-0.75595 6.047618,-1.79539 c 0,0 0.541837,0.61094 0.519717,0.99219 -0.02212,0.38124 -0.61421,0.8032 -0.61421,0.8032 0,0 -3.60378,1.38104 -5.10268,2.55134 -0.228892,0.17871 -0.566965,0.75594 -0.566965,0.75594 l 3.212798,1.32292 2.55134,-2.74032 c 0,0 0.987554,-1.23893 1.700892,-1.32292 0.377981,-0.0445 0.833388,0.15248 1.039435,0.47247 0.13642,0.21186 0,0.75595 0,0.75595 l -1.511904,1.79539 -1.13393,1.6064 -0.188986,0.33073 0.755951,0.23623 1.795386,0.42523 h 0.330729 l 1.228419,-4.34673 0.99219,0.0472 c 0,0 0.89666,-1.38498 0.51972,-1.93713 -0.24123,-0.35335 -0.86375,-0.0261 -1.27567,-0.14174 -0.50199,-0.1409 -0.99737,-0.35258 -1.41741,-0.66146 -0.583774,-0.42929 -1.195207,-0.93373 -1.464659,-1.6064 -0.257742,-0.64343 -0.05861,-1.38583 -0.04725,-2.07887 0.0047,-0.28388 0.008,-0.56925 0.04725,-0.85044 0.06924,-0.4957 0.141276,-1.00139 0.330729,-1.46466 0.147233,-0.36003 0.851927,-0.68431 0.614212,-0.99219 -0.130912,-0.16955 -0.614212,0.18899 -0.614212,0.18899 l -0.94494,0.56696 -0.566963,0.75595 -0.04725,0.18899 -1.133928,-0.42522 -12.473214,-3.9215 z"
       id="path33"
       inkscape:connector-curvature="0"
       sodipodi:nodetypes="ccccscccccczcscccsscccccccccssssssssccccccc"
       inkscape:export-xdpi="96"
       inkscape:export-ydpi="96" />
    <path
       style="fill:none;stroke:#000000;stroke-width:0.26458332px;stroke-linecap:butt;stroke-linejoin:miter;stroke-opacity:1"
       d="m 105.50465,238.2007 -0.735,1.00226 -1.13589,1.06908 -0.87148,0.71661 -0.4961,0.28348 v 0.0945 l 0.68508,0.0945 1.15755,0.49609 1.03944,0.77958 0.4016,0.3071 0.51972,-0.44884 0.73233,-0.47247 0.96856,-0.51972 0.59059,-0.21261 0.28348,0.0236 h 0.28348 l -0.54334,-0.44885 -1.70089,-1.48828 -0.94494,-1.22843 -0.14174,-0.14174 z"
       id="path35"
       inkscape:connector-curvature="0"
       inkscape:export-xdpi="96"
       inkscape:export-ydpi="96" />
    <path
       style="fill:none;stroke:#000000;stroke-width:0.26458332px;stroke-linecap:butt;stroke-linejoin:miter;stroke-opacity:1"
       d="m 105.69159,245.92596 3.02381,4.77195 c 0,0 -0.0454,0.13854 -0.0945,0.18899 -0.18681,0.19179 -0.47356,0.24997 -0.70871,0.37798 -0.28482,0.15505 -0.60066,0.26565 -0.85044,0.47247 -0.18949,0.15689 -0.47248,0.56696 -0.47248,0.56696 0,0 -0.22422,0.36415 -0.28348,0.56697 -0.0844,0.28881 -0.0945,0.89769 -0.0945,0.89769 l 0.51972,0.51972 0.28348,0.51971 0.0945,0.23624 -1.5119,2.55134 -1.46466,-2.59859 0.37798,-0.51971 c 0,0 0.34931,-0.27466 0.42522,-0.47248 0.15798,-0.4117 0.16441,-0.91373 0,-1.32291 -0.19519,-0.48577 -0.65445,-0.83854 -1.08668,-1.13393 -0.40808,-0.27889 -1.37017,-0.56697 -1.37017,-0.56697 z"
       id="path37"
       inkscape:connector-curvature="0"
       sodipodi:nodetypes="ccssscscccccccssscc"
       inkscape:export-xdpi="96"
       inkscape:export-ydpi="96" />
    <path
       style="fill:none;stroke:#000000;stroke-width:0.26458332px;stroke-linecap:butt;stroke-linejoin:miter;stroke-opacity:1"
       d="m 112.11719,238.69717 0.23623,0.66146 0.61421,1.18117 0.23624,1.46466 -0.18899,1.74814 -0.37798,0.8032 -0.8032,0.94494 -1.37016,0.8032 -1.5119,0.18899 h -0.23624 l 0.61421,2.03162 0.94494,-0.14174 0.56697,1.6064 0.85044,2.83482 2.59859,-0.56697 0.14174,-0.28348 -3.02381,-4.25223 1.08668,-0.66146 0.14174,-0.18899 4.63021,4.29948 2.74033,-1.6064 -0.23624,-0.23623 -5.90587,-3.26005 0.51971,-1.27566 v 0 l 3.2128,0.89769 5.00819,1.6064 1.84263,-3.07106 -9.82738,-0.94494 c 0,0 0.33078,-1.46466 0.0473,-1.37016 -0.0945,0.0315 0.28348,-0.0945 0.28348,-0.0945 l 10.77232,-1.22842 2.07887,-4.58296 -13.65439,4.34672 -0.23624,-0.51971 -0.89769,-0.75596 z"
       id="path39"
       inkscape:connector-curvature="0"
       sodipodi:nodetypes="cccccccccccccccccccccccccccccsccccccc"
       inkscape:export-xdpi="96"
       inkscape:export-ydpi="96" />
    <path
       style="fill:none;stroke:#000000;stroke-width:0.26458332px;stroke-linecap:butt;stroke-linejoin:miter;stroke-opacity:1"
       d="m 102.3843,252.25706 c 0.29947,0.3784 0.71745,0.91709 0.85045,0.94495 0.39391,0.0825 -0.50476,0.79803 -0.61422,1.01581 -0.23186,0.46131 -0.93805,1.45339 -0.85044,1.53553 l 0.37797,0.35434 c 0.11472,0.10755 0.0875,0.24505 0.14174,0.44885 0.0218,0.082 0.16802,0.19395 0.0945,0.23624 -0.283,0.16281 -0.69896,0.52794 -0.89769,0.56696 -0.18673,0.0367 -0.0893,-0.39873 -0.23624,-0.51971 -0.13121,-0.10807 -0.32714,-0.0994 -0.49609,-0.11812 -0.58706,-0.065 -1.258547,-0.26874 -1.771767,0.0236 -0.144338,0.0822 -0.262169,0.25912 -0.259858,0.42522 0.0026,0.18782 0.301736,0.28471 0.307107,0.47247 0.0018,0.0635 -0.03308,0.14931 -0.0945,0.16536 -0.44424,0.11609 -0.854062,-0.38648 -1.181174,-0.7087 -0.191479,-0.18861 -0.383663,-0.41954 -0.425225,-0.68508 -0.03012,-0.19246 -0.008,-0.44236 0.141743,-0.56697 0.194061,-0.1615 0.503599,-0.0393 0.755951,-0.0472 0.535206,-0.0167 1.081331,0.10501 1.606399,0 0.301144,-0.0602 0.617194,-0.15458 0.850454,-0.35435 0.46979,-0.40234 0.73423,-1.01034 0.96856,-1.58277 0.44579,-1.08899 0.54865,-1.83852 0.73233,-1.60643 z"
       id="path41"
       inkscape:connector-curvature="0"
       sodipodi:nodetypes="ssssssssssssssssssssss"
       inkscape:export-xdpi="96"
       inkscape:export-ydpi="96" />
    <path
       style="fill:none;stroke:#000000;stroke-width:0.26458332px;stroke-linecap:butt;stroke-linejoin:miter;stroke-opacity:1"
       d="m 108.78627,252.23344 -0.73233,0.96857 -0.0945,0.11811 0.59059,1.06306 0.82682,1.29929 v 0.21262 l -0.33073,0.23623 -0.18899,0.35435 0.0473,0.30711 0.35435,0.3071 0.4961,0.35436 0.0709,-0.0945 -0.0709,-0.42522 0.28348,-0.18899 h 0.54334 l 0.87407,-0.0236 h 0.68508 l 0.18899,0.18898 0.11812,0.23624 -0.11812,0.4016 -0.0945,0.18899 0.16537,0.0236 0.85045,-0.42523 0.54334,-0.47247 0.16536,-0.42522 v -0.25986 l -0.21261,-0.28348 -0.21261,-0.14174 -1.18118,0.0236 h -1.27567 l -0.28348,-0.18899 -0.4016,-0.23624 -0.49609,-0.73233 -0.96857,-2.33872 z"
       id="path43"
       inkscape:connector-curvature="0"
       inkscape:export-xdpi="96"
       inkscape:export-ydpi="96" />
    <path
       style="fill:none;stroke:#000000;stroke-width:0.26458332px;stroke-linecap:butt;stroke-linejoin:miter;stroke-opacity:1"
       d="m 98.273808,261.56473 14.457592,-0.0236 -0.54334,0.8032 -6.59096,9.54391 z"
       id="path45"
       inkscape:connector-curvature="0"
       inkscape:export-xdpi="96"
       inkscape:export-ydpi="96" />
    <path
       style="fill:none;stroke:#000000;stroke-width:0.26458332px;stroke-linecap:butt;stroke-linejoin:miter;stroke-opacity:1"
       d="m 78.430058,64.922619 4.913691,10.394344 2.267857,5.669642 2.078869,1.700893 6.047618,5.480655 3.023812,3.212799 1.322916,0.755951 7.181549,-18.709822 0.18899,41.388399 -1.13393,0.75595 -2.83482,2.64583 -2.645837,1.88988 -1.322917,3.40179 -4.157739,9.63839 -0.377976,-31.56101 -0.188986,-0.75596 -5.858632,-8.882436 -0.566965,10.016366 c 0,0 3.358723,1.79925 4.157739,3.40179 1.406588,2.82111 0.377976,9.44941 0.377976,9.44941 L 78.808034,104.04315 Z"
       id="path58"
       inkscape:connector-curvature="0"
       sodipodi:nodetypes="ccccccccccccccccccsccc"
       inkscape:export-xdpi="96"
       inkscape:export-ydpi="96" />
    <path
       style="fill:none;stroke:#000000;stroke-width:0.26830915px;stroke-linecap:butt;stroke-linejoin:miter;stroke-opacity:1"
       d="m 133.22275,64.894849 -5.04894,10.402803 -2.33029,5.674256 -2.13609,1.702277 -6.21408,5.485112 -3.10705,3.215415 -1.35933,0.756565 -7.37923,-18.725045 -0.19418,41.422088 1.16512,0.75656 2.91286,2.64798 2.71868,1.89142 1.35932,3.40456 4.27219,9.64623 0.38837,-31.58669 0.19419,-0.75658 6.0199,-8.889657 0.58257,10.024517 c 0,0 -3.45118,1.80071 -4.27218,3.40456 -1.4453,2.8234 -0.38839,9.4571 -0.38839,9.4571 l 12.42817,-10.7811 z"
       id="path58-3"
       inkscape:connector-curvature="0"
       sodipodi:nodetypes="ccccccccccccccccccsccc"
       inkscape:export-xdpi="96"
       inkscape:export-ydpi="96" />
  </g>
</svg>
